<svg width="18" height="10" viewBox="0 0 18 10" fill="none" xmlns="http://www.w3.org/2000/svg">
<path d="M17.6468 2.01678L9.85242 9.65402C9.62635 9.87555 9.31973 10 9.00001 10C8.68029 10 8.37366 9.87555 8.14759 9.65402L0.353229 2.01678C0.04863 1.71838 -0.0703618 1.28341 0.041077 0.875728C0.152516 0.468045 0.477455 0.149587 0.893493 0.0403109C1.30953 -0.068965 1.75346 0.0475445 2.05806 0.345951L9.00001 7.14794L15.942 0.345951C16.2868 0.00814342 16.8053 -0.0928802 17.2558 0.0899811C17.7063 0.272842 18 0.703583 18 1.18137C18.0004 1.4948 17.8733 1.79547 17.6468 2.01678Z" fill="#FB9A00"/>
</svg>
