<svg width="24" height="19" viewBox="0 0 24 19" fill="none" xmlns="http://www.w3.org/2000/svg">
<g clip-path="url(#clip0_1_4)">
<path d="M24 9.5L18.3667 17.6089C18.0778 18.0161 17.7333 18.3497 17.3333 18.6098C16.9333 18.8699 16.4889 19 16 19H2C1.44445 19 0.97222 18.8021 0.583333 18.4062C0.194445 18.0104 0 17.5297 0 16.9643V2.03571C0 1.47024 0.194445 0.989581 0.583333 0.59375C0.97222 0.197917 1.44445 0 2 0H16C16.4889 0 16.9333 0.130059 17.3333 0.390179C17.7333 0.650297 18.0778 0.983928 18.3667 1.39107L24 9.5ZM21.5 9.5L16.3667 2.03571H2V16.9643H16.3667L21.5 9.5ZM2 9.5V16.9643V2.03571V9.5Z" fill="black"/>
</g>
<defs>
<clipPath id="clip0_1_4">
<rect width="24" height="19" fill="white"/>
</clipPath>
</defs>
</svg>
