<svg width="88" height="100" viewBox="0 0 88 100" fill="none" xmlns="http://www.w3.org/2000/svg">
<path d="M82.4749 0H12.6016V100H82.4749V0Z" fill="#30CDCC"/>
<path d="M60.2002 71.3491C56.5344 72.962 53.3568 73.5014 49.0187 73.5014C38.878 73.5014 29.957 66.3896 29.957 54.6734C29.957 42.4809 38.999 31.9014 52.8082 31.9014C63.5606 31.9014 71.2579 39.1329 71.2579 49.1744C71.2579 57.9004 66.2488 63.3993 59.6515 63.3993C56.7792 63.3993 54.7015 61.9654 54.3963 58.7976H54.2753C52.3805 61.847 49.6319 63.3993 46.3938 63.3993C42.4214 63.3993 39.5504 60.5301 39.5504 55.6298C39.5504 48.3377 45.049 41.7035 53.8463 41.7035C56.5344 41.7035 59.5897 42.3612 61.1173 43.1979L59.283 54.255C58.6739 57.782 59.1002 59.3948 60.8107 59.4554C63.4369 59.5145 66.7383 56.227 66.7383 49.3533C66.7383 41.5837 61.6068 35.5467 52.1358 35.5467C42.7885 35.5467 34.6004 42.719 34.6004 54.1353C34.6004 64.1163 41.1385 69.7955 50.241 69.7955C53.3582 69.7955 56.6568 69.1377 59.1002 67.8827L60.2002 71.3491ZM54.7634 46.6644C54.2753 46.5446 53.662 46.4249 52.8687 46.4249C48.8358 46.4249 45.6595 50.3097 45.6595 54.9128C45.6595 57.1834 46.699 58.6173 48.7148 58.6173C50.9753 58.6173 53.3582 55.8087 53.9068 52.3422L54.7634 46.6644Z" fill="#FB9A00"/>
<g opacity="0.25">
<path opacity="0.25" d="M12.6016 32.1953V0H40.9334L12.6016 32.1953Z" fill="white"/>
</g>
<path d="M19.692 11.2529H5.52539V19.2264H19.692V11.2529Z" fill="#333333"/>
<path d="M19.692 28.6328H5.52539V36.6063H19.692V28.6328Z" fill="#333333"/>
<path d="M19.692 46.0137H5.52539V53.9871H19.692V46.0137Z" fill="#333333"/>
<path d="M19.692 63.3936H5.52539V71.367H19.692V63.3936Z" fill="#333333"/>
<path d="M19.692 80.7744H5.52539V88.7478H19.692V80.7744Z" fill="#333333"/>
</svg>
