<svg width="87" height="100" viewBox="0 0 87 100" fill="none" xmlns="http://www.w3.org/2000/svg">
<path d="M75.1509 19.7764H16.3652V32.2446H75.1509V19.7764Z" fill="#FEFEFE"/>
<path d="M11.2168 7.61523L11.5699 90.2863H86.456L86.1029 7.61523H11.2168ZM38.8173 21.8707H30.3487V13.5256H38.8182V21.8707H38.8173ZM67.4009 21.8707H58.9314V13.5256H67.4009V21.8707Z" fill="#30CDCC"/>
<path d="M34.5824 17.5458C33.2368 17.5458 32.1465 16.4714 32.1465 15.1454V2.40035C32.1465 1.07442 33.2372 0 34.5824 0C35.9276 0 37.0184 1.07442 37.0184 2.40035V15.1459C37.0184 16.4714 35.9276 17.5458 34.5824 17.5458Z" fill="#333333"/>
<path d="M63.1664 17.5458C61.8212 17.5458 60.7305 16.4714 60.7305 15.1454V2.40035C60.7305 1.07442 61.8212 0 63.1664 0C64.5116 0 65.6024 1.07442 65.6024 2.40035V15.1459C65.6024 16.4714 64.5116 17.5458 63.1664 17.5458Z" fill="#333333"/>
<path d="M45.99 31.7305H34.1475V37.3214H45.99V31.7305Z" fill="white"/>
<path d="M63.5261 31.7305H51.6836V37.3214H63.5261V31.7305Z" fill="white"/>
<path d="M81.0622 31.7305H69.2197V37.3214H81.0622V31.7305Z" fill="#FB9A00"/>
<path d="M28.4538 44.1992H16.6113V49.7901H28.4538V44.1992Z" fill="white"/>
<path d="M45.991 44.1992H34.1484V49.7901H45.991V44.1992Z" fill="white"/>
<path d="M63.5261 44.1992H51.6836V49.7901H63.5261V44.1992Z" fill="white"/>
<path d="M81.0632 44.1992H69.2207V49.7901H81.0632V44.1992Z" fill="#FB9A00"/>
<path d="M28.4538 56.668H16.6113V62.2589H28.4538V56.668Z" fill="white"/>
<path d="M45.991 56.667H34.1484V62.2579H45.991V56.667Z" fill="white"/>
<path d="M63.5261 56.667H51.6836V62.2579H63.5261V56.667Z" fill="white"/>
<path d="M81.0632 56.667H69.2207V62.2579H81.0632V56.667Z" fill="#FB9A00"/>
<path d="M28.4538 69.1348H16.6113V74.7257H28.4538V69.1348Z" fill="white"/>
<path d="M45.991 69.1348H34.1484V74.7257H45.991V69.1348Z" fill="white"/>
<path d="M63.5261 69.1348H51.6836V74.7257H63.5261V69.1348Z" fill="white"/>
<path d="M16.2788 99.1963C24.8255 99.1963 31.754 92.2679 31.754 83.7212C31.754 75.1745 24.8255 68.2461 16.2788 68.2461C7.73216 68.2461 0.803711 75.1745 0.803711 83.7212C0.803711 92.2679 7.73216 99.1963 16.2788 99.1963Z" fill="white"/>
<path d="M16.279 100C7.30265 100 0 92.6978 0 83.7214C0 74.745 7.30265 67.4424 16.279 67.4424C25.2554 67.4424 32.5581 74.745 32.5581 83.7214C32.5581 92.6978 25.2554 100 16.279 100ZM16.279 69.0502C8.18935 69.0502 1.60781 75.6317 1.60781 83.7214C1.60781 91.8111 8.18935 98.3926 16.279 98.3926C24.3687 98.3926 30.9502 91.8111 30.9502 83.7214C30.9502 75.6317 24.3687 69.0502 16.279 69.0502Z" fill="#FB9A00"/>
<path d="M25.6545 83.3184H14.2949V84.1223H25.6545V83.3184Z" fill="#C0C0C0"/>
<path d="M17.1859 82.2458L8.05957 91.3721L8.62801 91.9405L17.7543 82.8142L17.1859 82.2458Z" fill="#C0C0C0"/>
<path d="M16.2791 85.9322C17.5 85.9322 18.4898 84.9424 18.4898 83.7215C18.4898 82.5005 17.5 81.5107 16.2791 81.5107C15.0581 81.5107 14.0684 82.5005 14.0684 83.7215C14.0684 84.9424 15.0581 85.9322 16.2791 85.9322Z" fill="#C0C0C0"/>
<path d="M16.2786 85.0464C17.0112 85.0464 17.605 84.4526 17.605 83.72C17.605 82.9874 17.0112 82.3936 16.2786 82.3936C15.546 82.3936 14.9521 82.9874 14.9521 83.72C14.9521 84.4526 15.546 85.0464 16.2786 85.0464Z" fill="#FB9A00"/>
<path d="M16.3193 70.4561L16.48 75.4302L16.6006 80.4043C16.6356 82.0624 16.7401 83.7204 16.681 85.3785C16.6272 87.0365 16.5407 88.6946 16.3193 90.3526H16.2389C16.0174 88.6946 15.931 87.0365 15.8771 85.3785C15.818 83.7204 15.9225 82.0624 15.9575 80.4043L16.0781 75.4302L16.2389 70.4561H16.3193Z" fill="#FB9A00"/>
</svg>
