<svg width="75" height="75" viewBox="0 0 75 75" fill="none" xmlns="http://www.w3.org/2000/svg">
<path d="M65.625 10.5469H59.7656V7.03125C59.7656 5.74219 58.7109 4.6875 57.4219 4.6875H55.0781C53.7891 4.6875 52.7344 5.74219 52.7344 7.03125V10.5469H21.0938V7.03125C21.0938 5.74219 20.0391 4.6875 18.75 4.6875H16.4062C15.1172 4.6875 14.0625 5.74219 14.0625 7.03125V10.5469H8.20312C5.27344 10.5469 2.92969 12.8906 2.92969 15.8203V65.625C2.92969 68.5547 5.27344 70.8984 8.20312 70.8984H65.625C68.5547 70.8984 70.8984 68.5547 70.8984 65.625V15.8203C70.8984 12.8906 68.5547 10.5469 65.625 10.5469ZM57.4219 7.03125V16.4062H55.0781V7.03125H57.4219ZM18.75 7.03125V16.4062H16.4062V7.03125H18.75ZM68.5547 65.625C68.5547 67.2656 67.2656 68.5547 65.625 68.5547H8.20312C6.5625 68.5547 5.27344 67.2656 5.27344 65.625V25.1953H68.5547V65.625ZM68.5547 22.8516H5.27344V15.8203C5.27344 14.1797 6.5625 12.8906 8.20312 12.8906H14.0625V16.4062C14.0625 17.6953 15.1172 18.75 16.4062 18.75H18.75C20.0391 18.75 21.0938 17.6953 21.0938 16.4062V12.8906H52.7344V16.4062C52.7344 17.6953 53.7891 18.75 55.0781 18.75H57.4219C58.7109 18.75 59.7656 17.6953 59.7656 16.4062V12.8906H65.625C67.2656 12.8906 68.5547 14.1797 68.5547 15.8203V22.8516Z" fill="white"/>
<path d="M42.7734 30.4688H31.0547C30.4102 30.4688 29.8828 30.9961 29.8828 31.6406V43.3594C29.8828 44.0039 30.4102 44.5312 31.0547 44.5312H42.7734C43.418 44.5312 43.9453 44.0039 43.9453 43.3594V31.6406C43.9453 30.9961 43.418 30.4688 42.7734 30.4688ZM41.6016 42.1875H32.2266V32.8125H41.6016V42.1875Z" fill="white"/>
<path d="M23.4375 30.4688H11.7188C11.0742 30.4688 10.5469 30.9961 10.5469 31.6406V43.3594C10.5469 44.0039 11.0742 44.5312 11.7188 44.5312H23.4375C24.082 44.5312 24.6094 44.0039 24.6094 43.3594V31.6406C24.6094 30.9961 24.082 30.4688 23.4375 30.4688ZM22.2656 42.1875H12.8906V32.8125H22.2656V42.1875Z" fill="white"/>
<path d="M62.1094 30.4688H50.3906C49.7461 30.4688 49.2188 30.9961 49.2188 31.6406V43.3594C49.2188 44.0039 49.7461 44.5312 50.3906 44.5312H62.1094C62.7539 44.5312 63.2812 44.0039 63.2812 43.3594V31.6406C63.2812 30.9961 62.7539 30.4688 62.1094 30.4688ZM60.9375 42.1875H51.5625V32.8125H60.9375V42.1875Z" fill="white"/>
<path d="M46.0547 49.7461C45.5859 49.2773 44.8828 49.2773 44.4141 49.7461L44.0625 50.0977V49.9805C44.0625 49.3359 43.5351 48.8086 42.8906 48.8086H31.1719C30.5273 48.8086 30 49.3359 30 49.9805V61.6992C30 62.3438 30.5273 62.8711 31.1719 62.8711H42.8906C43.5351 62.8711 44.0625 62.3438 44.0625 61.6992V53.3789L46.0547 51.3867C46.5234 50.918 46.5234 50.2148 46.0547 49.7461ZM41.7187 60.5273H32.3437V55.8984L36.0937 59.707C36.3281 59.9414 36.6211 60.0586 36.9141 60.0586C37.207 60.0586 37.5 59.9414 37.7344 59.707L41.6602 55.7812V60.5273H41.7187ZM41.7187 52.4414L36.9141 57.1875L33.6328 53.9062C33.2812 53.5547 32.7539 53.4961 32.3437 53.6719V51.2109H41.7187V52.4414Z" fill="white"/>
<path d="M23.4375 49.2188H11.7188C11.0742 49.2188 10.5469 49.7461 10.5469 50.3906V62.1094C10.5469 62.7539 11.0742 63.2812 11.7188 63.2812H23.4375C24.082 63.2812 24.6094 62.7539 24.6094 62.1094V50.3906C24.6094 49.7461 24.082 49.2188 23.4375 49.2188ZM22.2656 60.9375H12.8906V51.5625H22.2656V60.9375Z" fill="white"/>
<path d="M65.3906 50.1562C64.9219 49.6875 64.2188 49.6875 63.75 50.1562L63.2812 50.625V50.3906C63.2812 49.7461 62.7539 49.2188 62.1094 49.2188H50.3906C49.7461 49.2188 49.2188 49.7461 49.2188 50.3906V62.1094C49.2188 62.7539 49.7461 63.2812 50.3906 63.2812H62.1094C62.7539 63.2812 63.2812 62.7539 63.2812 62.1094V53.9062L65.3906 51.7969C65.8594 51.3281 65.8594 50.625 65.3906 50.1562ZM60.9375 60.9375H51.5625V56.1914L55.4883 60.1172C55.7227 60.3516 56.0156 60.4687 56.3086 60.4687C56.6016 60.4687 56.8945 60.3516 57.1289 60.1172L60.9375 56.25V60.9375ZM60.9375 52.9688L56.3086 57.5977L52.9688 54.3164C52.5586 53.9062 52.0312 53.8477 51.5625 54.1406V51.5625H60.9375V52.9688Z" fill="white"/>
</svg>
