<svg width="127" height="95" viewBox="0 0 127 95" fill="none" xmlns="http://www.w3.org/2000/svg">
<path d="M0.921875 55.6792L75.8812 23.8965L81.8779 76.0682L17.1131 94.0584L0.921875 55.6792Z" fill="#00EEEC"/>
<path d="M33.6042 53.8809C43.3789 53.8809 51.2946 46.6249 51.2946 37.6897C51.2946 36.5803 51.1746 35.5009 50.9348 34.4814L19.7217 47.7043C22.9599 51.4522 27.9672 53.8809 33.6042 53.8809Z" fill="white"/>
<path d="M47.8768 20.2388C47.517 20.2388 47.1572 19.9989 47.0373 19.6391C46.8574 19.1594 47.0972 18.6496 47.577 18.4997L98.8491 0.0597309C99.3289 -0.120171 99.8386 0.119695 99.9885 0.599434C100.168 1.07917 99.9285 1.5889 99.4488 1.73882L48.1766 20.1788C48.0867 20.2088 47.9667 20.2388 47.8768 20.2388Z" fill="#1A1A1A"/>
<path d="M91.0526 17.5407C90.6628 17.5407 90.333 17.3008 90.183 16.911C90.0331 16.4313 90.273 15.9215 90.7527 15.7716L110.062 9.47504C110.542 9.32512 111.052 9.56499 111.202 10.0447C111.352 10.5245 111.112 11.0342 110.632 11.1841L91.3224 17.4807C91.2325 17.5407 91.1425 17.5407 91.0526 17.5407Z" fill="#1A1A1A"/>
<path d="M95.1011 70.162C94.7113 70.162 94.3215 69.8922 94.2315 69.4724C94.1116 68.9927 94.4114 68.5129 94.8912 68.393L125.894 60.7471C126.374 60.6272 126.854 60.9271 126.974 61.4068C127.094 61.8865 126.794 62.3663 126.314 62.4862L95.311 70.1321C95.251 70.162 95.161 70.162 95.1011 70.162Z" fill="#1A1A1A"/>
<path d="M67.6655 92.1997C67.2757 92.1997 66.8859 91.9299 66.796 91.5101C66.676 91.0304 66.9759 90.5506 67.4556 90.4307L120.497 77.3878C120.977 77.2678 121.456 77.5677 121.576 78.0474C121.696 78.5272 121.396 79.0069 120.917 79.1268L67.8754 92.1697C67.8155 92.1997 67.7255 92.1997 67.6655 92.1997Z" fill="#1A1A1A"/>
<path d="M82.7776 75.9784L76.7808 23.8966C76.8108 23.6268 76.6909 23.3569 76.481 23.177C76.1512 22.8772 75.6414 22.8772 75.3116 23.177L0.802057 54.7799C0.442253 54.8398 0.142415 55.0797 0.0524642 55.4695C0.0524642 55.4995 0.0524715 55.5295 0.0224878 55.5595C-0.00749593 55.6794 -0.00749593 55.7693 0.0224878 55.8893C0.0224878 55.9192 0.0224805 55.9492 0.0524642 55.9492C0.0524642 55.9792 0.0524569 56.0092 0.0824406 56.0092C0.0824406 56.0392 0.0824406 56.0392 0.0824406 56.0692L16.2737 94.4483C16.3336 94.5683 16.4236 94.6882 16.5135 94.7782C16.6035 94.8681 16.7234 94.9281 16.8434 94.9581C16.9333 94.988 17.0233 94.9881 17.1132 94.9881C17.2032 94.9881 17.2631 94.988 17.3531 94.9581L82.118 76.9678C82.5377 76.8179 82.8375 76.4281 82.7776 75.9784ZM7.90822 69.9516C7.06868 66.8933 5.3596 57.0586 19.6319 61.5262L18.4925 61.1664L26.2582 63.1753L16.9933 91.5099L7.90822 69.9516ZM39.9008 64.8244L3.77045 55.4395L72.733 26.2054L39.9008 64.8244ZM28.0273 63.6551L39.9608 66.7434C40.0507 66.7734 40.1107 66.7734 40.2007 66.7734C40.4705 66.7734 40.7104 66.6534 40.8903 66.4136L50.8749 54.6899L79.8392 75.7085L18.5224 92.7393L28.0273 63.6551ZM52.0443 53.3107L55.1326 49.6826C54.8028 50.1024 54.6228 50.3423 54.6228 50.3423C54.6228 50.3423 65.9267 36.6697 70.904 40.8674C75.9113 45.0651 79.5093 63.4452 79.5093 63.4452C79.5093 63.4452 79.4494 62.9055 79.3894 62.006L80.7687 74.1194L52.0443 53.3107Z" fill="#1A1A1A"/>
<path d="M56.422 77.8079C59.6511 77.8079 62.2688 75.1902 62.2688 71.9611C62.2688 68.732 59.6511 66.1143 56.422 66.1143C53.1929 66.1143 50.5752 68.732 50.5752 71.9611C50.5752 75.1902 53.1929 77.8079 56.422 77.8079Z" fill="white"/>
</svg>
