<svg width="16" height="16" viewBox="0 0 16 16" fill="none" xmlns="http://www.w3.org/2000/svg">
<path d="M8.66626 3.99963C8.66626 4.3678 8.3678 4.66626 7.99963 4.66626C7.63147 4.66626 7.33301 4.3678 7.33301 3.99963C7.33301 3.63147 7.63147 3.33301 7.99963 3.33301C8.3678 3.33301 8.66626 3.63147 8.66626 3.99963Z" fill="black"/>
<path d="M7.99963 12.6666C7.72363 12.6666 7.49963 12.4426 7.49963 12.1666V7H6.83301C6.55701 7 6.33301 6.776 6.33301 6.5C6.33301 6.224 6.55701 6 6.83301 6H7.99963C8.27563 6 8.49963 6.224 8.49963 6.5V12.1666C8.49963 12.4426 8.27563 12.6666 7.99963 12.6666Z" fill="black"/>
<path d="M8 16C3.58862 16 0 12.4114 0 8C0 3.58862 3.58862 0 8 0C12.4114 0 16 3.58862 16 8C16 12.4114 12.4114 16 8 16ZM8 1C4.14001 1 1 4.14001 1 8C1 11.86 4.14001 15 8 15C11.86 15 15 11.86 15 8C15 4.14001 11.86 1 8 1Z" fill="black"/>
<path d="M9.5 12.667H6.5C6.224 12.667 6 12.443 6 12.167C6 11.891 6.224 11.667 6.5 11.667H9.5C9.776 11.667 10 11.891 10 12.167C10 12.443 9.776 12.667 9.5 12.667Z" fill="black"/>
</svg>
