<svg width="104" height="100" viewBox="0 0 104 100" fill="none" xmlns="http://www.w3.org/2000/svg">
<path d="M20.1708 70.4874C20.1708 70.4874 37.1169 18.9718 37.8115 16.856C39.3364 12.3157 43.7144 13.2523 43.7144 13.2523L66.577 20.73C66.577 20.73 70.2439 21.8157 71.7883 25.1503C73.1479 28.1141 71.2912 31.8586 71.2912 31.8586C71.2912 31.8586 52.2788 79.1112 49.8442 83.2186C47.4097 87.326 44.7798 86.3185 42.0767 85.3002C39.3735 84.2818 24.8037 78.2132 21.8929 77.2315C17.9693 75.9063 20.1708 70.4874 20.1708 70.4874Z" fill="#FFE7E6"/>
<path d="M17.0861 74.2836C17.0861 74.2836 18.2034 70.9306 19.9341 65.8082L21.1894 62.0274C22.7143 57.4872 36.3473 16.7833 37.1287 14.4861C38.8486 9.43687 43.79 10.464 43.79 10.464L69.5307 18.7393C69.5307 18.7393 73.6686 19.9318 75.3979 23.6372C76.9342 26.9258 74.82 31.0954 74.82 31.0954C74.82 31.0954 54.16 82.198 51.4027 86.7657C48.6455 91.3334 45.8459 90.3084 42.7912 89.1859C39.7364 88.0635 21.8954 80.0563 18.6099 78.9745C15.3244 77.8927 17.0861 74.2836 17.0861 74.2836ZM22.3587 77.1745C25.2438 78.2794 39.3779 84.3062 42.0811 85.3245C44.7842 86.3428 47.4141 87.3504 49.8487 83.243C52.2792 79.1126 71.3336 31.8288 71.3336 31.8288C71.3336 31.8288 73.1903 28.0843 71.8307 25.1205C70.2863 21.7859 66.6194 20.7002 66.6194 20.7002L65.5604 20.3648C65.3385 21.2582 64.6786 22.6323 62.8107 22.2972C60.1093 21.8243 48.3516 17.2532 48.3516 17.2532C48.3516 17.2532 46.8514 16.7109 47.4984 14.4611L43.7337 13.2266C43.7337 13.2266 39.8171 12.2086 38.2923 16.7489C37.5935 18.8416 22.0153 66.1802 22.0153 66.1802C21.4456 67.9363 20.8266 69.6757 20.2146 71.4176C19.6683 72.9731 19.1327 75.9439 22.3587 77.1745Z" fill="#324A58"/>
<path d="M92.9883 46.7051C98.3918 46.7051 102.423 45.5634 103.595 44.3333V42.8213C103.244 43.0466 102.877 43.2254 102.508 43.3875C101.495 43.825 100.447 44.1146 99.391 44.3476C97.2761 44.8002 95.1193 44.9771 92.9702 44.9717C90.821 44.9519 88.6685 44.7775 86.5516 44.3378C86.0222 44.2286 85.497 44.096 84.9756 43.9421C84.4546 43.7872 83.9379 43.609 83.4312 43.3895C83.0624 43.2272 82.6961 43.0483 82.3457 42.823V44.2961C83.471 45.5402 87.5302 46.7051 92.9883 46.7051Z" fill="#32C9CD"/>
<path d="M83.883 47.7606C84.802 48.1147 85.8014 48.3432 86.8062 48.5254C87.8138 48.7063 88.8399 48.8223 89.8696 48.8985C90.8993 48.9787 91.9351 49.0075 92.9703 49.0018C95.0392 48.987 97.1117 48.8549 99.1323 48.5157C100.139 48.342 101.138 48.1141 102.059 47.7626C102.514 47.5848 102.957 47.3773 103.314 47.1178C103.416 47.044 103.511 46.9661 103.595 46.8856V45.0837C101.732 46.4751 97.304 47.2697 92.9885 47.2697C88.6448 47.2698 84.1871 46.4649 82.3457 45.0566V46.8844C82.4299 46.9649 82.5251 47.043 82.6269 47.1169C82.9843 47.376 83.4272 47.5831 83.883 47.7606Z" fill="#32C9CD"/>
<path d="M102.508 48.7042C101.495 49.1417 100.447 49.4313 99.391 49.6642C97.2761 50.1168 95.1193 50.2938 92.9702 50.2884C90.821 50.2684 88.6685 50.0941 86.5516 49.6545C86.0222 49.5453 85.497 49.4127 84.9756 49.2587C84.4546 49.1039 83.9379 48.9257 83.4312 48.706C83.0624 48.5438 82.6961 48.3648 82.3457 48.1395V51.183C83.471 52.4273 87.5302 53.5922 92.9883 53.5922C98.3918 53.5922 102.423 52.4505 103.595 51.2203V48.1377C103.244 48.3633 102.877 48.5421 102.508 48.7042Z" fill="#32C9CD"/>
<path d="M82.3457 51.9434V54.4366C82.4299 54.5171 82.5251 54.5952 82.6269 54.6691C82.9843 54.9282 83.4272 55.1353 83.883 55.3127C84.802 55.6668 85.8014 55.8953 86.8062 56.0775C87.8138 56.2584 88.8399 56.3744 89.8696 56.4506C90.8993 56.5308 91.9351 56.5595 92.9703 56.5539C95.0392 56.5391 97.1117 56.407 99.1323 56.0677C100.139 55.894 101.138 55.6662 102.059 55.3147C102.514 55.1369 102.957 54.9294 103.314 54.6699C103.416 54.596 103.511 54.5182 103.595 54.4377V51.9703C101.732 53.3618 97.304 54.1564 92.9885 54.1564C88.6448 54.1566 84.1871 53.3516 82.3457 51.9434Z" fill="#32C9CD"/>
<path d="M92.9883 61.8398C98.3918 61.8398 102.423 60.698 103.595 59.4678V55.6914C103.244 55.9167 102.877 56.0955 102.508 56.2576C101.495 56.6951 100.447 56.9848 99.391 57.2177C97.2761 57.6703 95.1193 57.8472 92.9702 57.8419C90.821 57.8218 88.6685 57.6476 86.5516 57.2079C86.0222 57.0987 85.497 56.9661 84.9756 56.8122C84.4546 56.6574 83.9379 56.4791 83.4312 56.2595C83.0624 56.0972 82.6961 55.9183 82.3457 55.693V59.4305C83.471 60.6749 87.5302 61.8398 92.9883 61.8398Z" fill="#32C9CD"/>
<path d="M83.8828 64.0841C84.8018 64.4382 85.8013 64.6667 86.8061 64.8489C87.8137 65.0298 88.8398 65.1458 89.8695 65.222C90.8992 65.3022 91.935 65.331 92.9702 65.3255C95.0391 65.3107 97.1116 65.1785 99.1322 64.8393C100.139 64.6656 101.138 64.4378 102.059 64.0863C102.514 63.9085 102.957 63.7009 103.314 63.4415C103.416 63.3676 103.511 63.2896 103.595 63.2093V60.2185C101.732 61.61 97.3038 62.4046 92.9883 62.4046C88.6448 62.4046 84.1871 61.5997 82.3457 60.1914V63.208C82.4299 63.2885 82.5251 63.3666 82.6269 63.4405C82.9842 63.6995 83.4271 63.9068 83.8828 64.0841Z" fill="#32C9CD"/>
<path d="M83.8828 69.5395C84.8018 69.8935 85.8013 70.1221 86.8061 70.3042C87.8137 70.4851 88.8398 70.6012 89.8695 70.6773C90.8992 70.7575 91.935 70.7863 92.9702 70.7808C95.0391 70.766 97.1116 70.6339 99.1322 70.2946C100.139 70.1209 101.138 69.8931 102.059 69.5416C102.514 69.3638 102.957 69.1562 103.314 68.8968C103.416 68.8229 103.511 68.745 103.595 68.6646V67.3581C101.732 68.7496 97.3038 69.5443 92.9883 69.5443C88.6448 69.5443 84.1871 68.7393 82.3457 67.3311V68.6635C82.4299 68.744 82.5251 68.8221 82.6269 68.896C82.9842 69.155 83.4271 69.3621 83.8828 69.5395Z" fill="#32C9CD"/>
<path d="M92.9883 68.9795C98.3918 68.9795 102.423 67.8378 103.595 66.6076V64.4619C103.244 64.6872 102.877 64.8661 102.508 65.0282C101.495 65.4657 100.447 65.7553 99.391 65.9882C97.2761 66.4408 95.1193 66.6177 92.9702 66.6124C90.821 66.5924 88.6685 66.4181 86.5516 65.9785C86.0222 65.8692 85.497 65.7367 84.9756 65.5827C84.4546 65.4279 83.9379 65.2497 83.4312 65.0301C83.0624 64.8678 82.6961 64.6889 82.3457 64.4636V66.5704C83.471 67.8145 87.5302 68.9795 92.9883 68.9795Z" fill="#32C9CD"/>
<path d="M99.391 71.4441C97.2761 71.8967 95.1193 72.0736 92.9702 72.0683C90.821 72.0484 88.6685 71.874 86.5516 71.4344C86.0222 71.3251 85.497 71.1926 84.9756 71.0386C84.4546 70.8838 83.9379 70.7056 83.4312 70.486C83.0624 70.3238 82.6961 70.1448 82.3457 69.9195V71.3327H82.3749C82.3675 71.3842 82.3625 71.4359 82.3625 71.4881C82.3625 73.3523 87.1193 74.8637 92.9871 74.8637C98.8549 74.8637 103.612 73.3523 103.612 71.4881C103.612 71.4256 103.606 71.3637 103.595 71.3021V69.918C103.244 70.1433 102.878 70.3222 102.508 70.4842C101.495 70.9216 100.447 71.2113 99.391 71.4441Z" fill="#32C9CD"/>
<path d="M102.532 36.2759C102.224 36.0057 101.827 35.7748 101.415 35.5754C100.583 35.1753 99.6653 34.8886 98.7361 34.6592C96.8685 34.2103 94.923 34.0291 92.9876 34.0384C92.0192 34.0524 91.0514 34.101 90.0904 34.2014C89.6096 34.2481 89.1315 34.3168 88.6562 34.395C88.1811 34.4735 87.7083 34.5632 87.2418 34.6721C86.3106 34.8898 85.3919 35.1734 84.5569 35.5679C84.1436 35.7662 83.7462 35.9974 83.4381 36.2695C83.2857 36.4043 83.1509 36.5484 83.0701 36.6889C82.9877 36.8301 82.9571 36.9534 82.9638 37.0615C82.9721 37.1698 83.016 37.282 83.107 37.41C83.1965 37.5369 83.3371 37.6659 83.4938 37.7852C83.8101 38.0273 84.2129 38.2249 84.6275 38.3959C85.4646 38.7381 86.3836 38.9599 87.3078 39.1354C88.2349 39.3104 89.1805 39.4198 90.1296 39.4921C91.0784 39.5691 92.0335 39.5949 92.9878 39.5866C94.8948 39.5685 96.8047 39.4436 98.6649 39.1224C99.5911 38.9585 100.511 38.7398 101.351 38.4032C101.767 38.2335 102.171 38.0356 102.487 37.7914C102.643 37.6707 102.783 37.5403 102.872 37.4122C102.962 37.283 103.005 37.1696 103.012 37.0615C103.017 36.9534 102.985 36.8311 102.902 36.6911C102.82 36.5519 102.685 36.4091 102.532 36.2759Z" fill="#FF9B19"/>
<path d="M103.292 38.7787C102.849 39.1559 102.377 39.4177 101.901 39.6475C100.948 40.1 99.968 40.3988 98.9815 40.6414C97.0057 41.1122 94.9926 41.2963 92.9871 41.2877C91.9841 41.2738 90.9813 41.2237 89.981 41.1198C89.4807 41.0713 88.982 41.0002 88.4842 40.9189C87.9865 40.8371 87.4898 40.7433 86.9954 40.6286C86.0069 40.3976 85.0262 40.1018 84.0696 39.655C83.5927 39.4265 83.1204 39.1643 82.6772 38.7851C82.5643 38.6862 82.4523 38.5806 82.3457 38.4629V41.5673C82.4299 41.6478 82.5251 41.7259 82.6269 41.7998C82.9843 42.059 83.4272 42.2661 83.883 42.4435C84.802 42.7975 85.8014 43.0261 86.8062 43.2082C87.8138 43.3891 88.8399 43.5052 89.8696 43.5813C90.8993 43.6615 91.9351 43.6903 92.9703 43.6848C95.0392 43.67 97.1117 43.5379 99.1323 43.1986C100.139 43.0249 101.138 42.7971 102.059 42.4456C102.514 42.2678 102.957 42.0602 103.314 41.8008C103.416 41.7269 103.511 41.649 103.595 41.5686V38.49C103.497 38.5944 103.395 38.6896 103.292 38.7787Z" fill="#32C9CD"/>
<path d="M69.3752 62.2965C75.0029 62.2965 79.201 61.1075 80.4218 59.8266V58.252C80.0565 58.4866 79.6746 58.6728 79.2902 58.8416C78.2346 59.2972 77.143 59.5988 76.0435 59.8414C73.8409 60.3127 71.5946 60.497 69.3563 60.4914C67.118 60.4707 64.8762 60.2891 62.6714 59.8313C62.1201 59.7175 61.573 59.5794 61.0301 59.4191C60.4874 59.2579 59.9493 59.0723 59.4215 58.8437C59.0374 58.6747 58.6559 58.4883 58.291 58.2537V59.7878C59.463 61.0834 63.6906 62.2965 69.3752 62.2965Z" fill="#32C9CD"/>
<path d="M59.8919 63.396C60.8491 63.7647 61.89 64.0027 62.9365 64.1924C63.9859 64.3808 65.0545 64.5016 66.1269 64.5809C67.1994 64.6645 68.2781 64.6944 69.3563 64.6885C71.511 64.6731 73.6695 64.5355 75.774 64.1823C76.8221 64.0014 77.8633 63.7641 78.8217 63.398C79.2964 63.2129 79.7575 62.9968 80.1296 62.7266C80.2353 62.6496 80.3342 62.5686 80.4217 62.4848V60.6083C78.4815 62.0572 73.8698 62.8847 69.3752 62.8847C64.8515 62.8847 60.2089 62.0465 58.291 60.5801V62.4834C58.3787 62.5673 58.4779 62.6486 58.5839 62.7256C58.956 62.9954 59.4173 63.2111 59.8919 63.396Z" fill="#32C9CD"/>
<path d="M79.2902 64.379C78.2346 64.8346 77.143 65.1362 76.0435 65.3788C73.8409 65.8501 71.5946 66.0344 69.3563 66.0288C67.118 66.008 64.8762 65.8265 62.6714 65.3687C62.1201 65.2549 61.573 65.1168 61.0301 64.9565C60.4874 64.7953 59.9493 64.6097 59.4215 64.3809C59.0374 64.2119 58.6559 64.0256 58.291 63.791V66.9604C59.463 68.2562 63.6906 69.4693 69.3752 69.4693C75.0029 69.4693 79.201 68.2803 80.4218 66.9992V63.7891C80.0565 64.024 79.6748 64.2102 79.2902 64.379Z" fill="#32C9CD"/>
<path d="M58.291 67.752V70.3483C58.3787 70.4322 58.4779 70.5135 58.5839 70.5905C58.9562 70.8603 59.4174 71.076 59.8921 71.2608C60.8492 71.6294 61.8901 71.8675 62.9366 72.0572C63.986 72.2455 65.0547 72.3664 66.1271 72.4457C67.1995 72.5292 68.2783 72.5592 69.3565 72.5533C71.5112 72.5379 73.6697 72.4003 75.7741 72.047C76.8222 71.8661 77.8634 71.6289 78.8219 71.2628C79.2965 71.0777 79.7576 70.8615 80.1297 70.5914C80.2355 70.5144 80.3343 70.4334 80.4219 70.3495V67.78C78.4816 69.2291 73.8699 70.0566 69.3754 70.0566C64.8515 70.0567 60.2089 69.2185 58.291 67.752Z" fill="#32C9CD"/>
<path d="M69.3752 78.0571C75.0029 78.0571 79.201 76.8681 80.4218 75.587V71.6543C80.0565 71.8889 79.6746 72.0751 79.2902 72.244C78.2346 72.6996 77.143 73.0012 76.0435 73.2437C73.8409 73.7151 71.5946 73.8993 69.3563 73.8937C67.118 73.8729 64.8762 73.6914 62.6714 73.2336C62.1201 73.1198 61.573 72.9818 61.0301 72.8214C60.4874 72.6602 59.9493 72.4746 59.4215 72.2459C59.0374 72.0769 58.6559 71.8905 58.291 71.6559V75.5481C59.463 76.844 63.6906 78.0571 69.3752 78.0571Z" fill="#32C9CD"/>
<path d="M59.8919 80.3937C60.8491 80.7624 61.89 81.0004 62.9365 81.1901C63.9859 81.3785 65.0545 81.4993 66.1269 81.5786C67.1994 81.6621 68.2781 81.6921 69.3563 81.6864C71.511 81.671 73.6695 81.5334 75.774 81.1801C76.8221 80.9992 77.8633 80.7619 78.8217 80.3959C79.2964 80.2107 79.7575 79.9946 80.1296 79.7244C80.2353 79.6475 80.3342 79.5663 80.4217 79.4826V76.368C78.4815 77.8171 73.8698 78.6446 69.3752 78.6446C64.8515 78.6446 60.2089 77.8064 58.291 76.3398V79.4813C58.3787 79.5651 58.4779 79.6465 58.5839 79.7234C58.956 79.9931 59.4173 80.209 59.8919 80.3937Z" fill="#32C9CD"/>
<path d="M59.8919 86.0742C60.8491 86.4429 61.89 86.6809 62.9365 86.8706C63.9859 87.059 65.0545 87.1798 66.1269 87.2591C67.1994 87.3427 68.2781 87.3726 69.3563 87.3669C71.511 87.3515 73.6695 87.2139 75.774 86.8606C76.8221 86.6797 77.8633 86.4425 78.8217 86.0764C79.2964 85.8913 79.7575 85.6751 80.1296 85.405C80.2353 85.328 80.3342 85.2468 80.4217 85.1631V83.8026C78.4815 85.2517 73.8698 86.0792 69.3752 86.0792C64.8515 86.0792 60.2089 85.241 58.291 83.7744V85.162C58.3787 85.2458 58.4779 85.3271 58.5839 85.4041C58.956 85.6738 59.4173 85.8895 59.8919 86.0742Z" fill="#32C9CD"/>
<path d="M69.3752 85.4917C75.0029 85.4917 79.201 84.3027 80.4218 83.0216V80.7871C80.0565 81.0217 79.6746 81.2081 79.2902 81.3768C78.2346 81.8324 77.143 82.134 76.0435 82.3765C73.8409 82.8479 71.5946 83.0321 69.3563 83.0266C67.118 83.0057 64.8762 82.8242 62.6714 82.3664C62.1201 82.2526 61.573 82.1146 61.0301 81.9543C60.4874 81.793 59.9493 81.6074 59.4215 81.3788C59.0374 81.2098 58.6559 81.0235 58.291 80.7889V82.9828C59.463 84.2784 63.6906 85.4917 69.3752 85.4917Z" fill="#32C9CD"/>
<path d="M76.0435 88.0571C73.8409 88.5284 71.5946 88.7127 69.3563 88.7071C67.118 88.6864 64.8762 88.5047 62.6714 88.0469C62.1201 87.9331 61.573 87.7951 61.0301 87.6348C60.4874 87.4736 59.9493 87.288 59.4215 87.0594C59.0374 86.8904 58.6559 86.704 58.291 86.4694V87.9411H58.3214C58.3137 87.9947 58.3085 88.0485 58.3085 88.1029C58.3085 90.0443 63.2627 91.6181 69.3739 91.6181C75.4852 91.6181 80.4394 90.0443 80.4394 88.1029C80.4394 88.0378 80.4329 87.9734 80.4219 87.9092V86.4678C80.0567 86.7024 79.6748 86.8887 79.2903 87.0574C78.2348 87.5129 77.1431 87.8146 76.0435 88.0571Z" fill="#32C9CD"/>
<path d="M79.3156 51.4349C78.9945 51.1536 78.5816 50.9131 78.1522 50.7054C77.286 50.2887 76.33 49.9902 75.3623 49.7513C73.4171 49.2838 71.3909 49.0952 69.3752 49.1048C68.3666 49.1194 67.3587 49.17 66.3578 49.2746C65.8571 49.3232 65.3591 49.3947 64.8641 49.4762C64.3693 49.558 63.8769 49.6513 63.391 49.7647C62.4212 49.9914 61.4643 50.2868 60.5947 50.6977C60.1643 50.9041 59.7504 51.1449 59.4295 51.4283C59.2708 51.5687 59.1304 51.7187 59.0462 51.865C58.9604 52.0121 58.9286 52.1404 58.9355 52.253C58.9441 52.3658 58.9899 52.4827 59.0846 52.616C59.1779 52.7481 59.3243 52.8825 59.4875 53.0067C59.817 53.2588 60.2364 53.4645 60.6682 53.6426C61.54 53.999 62.4972 54.2299 63.4598 54.4128C64.4253 54.595 65.4102 54.7089 66.3986 54.7842C67.3868 54.8644 68.3815 54.8913 69.3754 54.8826C71.3616 54.8638 73.3507 54.7337 75.288 54.3992C76.2527 54.2285 77.2106 54.0007 78.0858 53.6503C78.5186 53.4735 78.9392 53.2675 79.2683 53.0132C79.4311 52.8875 79.5769 52.7517 79.6695 52.6182C79.7634 52.4837 79.8078 52.3656 79.8151 52.253C79.8206 52.1404 79.7876 52.0131 79.7009 51.8673C79.6155 51.7224 79.4746 51.5736 79.3156 51.4349Z" fill="#FF9B19"/>
<path d="M80.1064 54.0416C79.6448 54.4344 79.1538 54.7071 78.6582 54.9464C77.6653 55.4176 76.6446 55.7287 75.6172 55.9814C73.5594 56.4717 71.4628 56.6634 69.3741 56.6545C68.3295 56.6399 67.285 56.5878 66.2433 56.4796C65.7221 56.4291 65.2028 56.3551 64.6843 56.2704C64.166 56.1852 63.6487 56.0876 63.1337 55.9681C62.1043 55.7275 61.0829 55.4195 60.0865 54.9542C59.5899 54.7162 59.098 54.4432 58.6364 54.0483C58.5186 53.9455 58.402 53.8355 58.291 53.7129V56.9458C58.3787 57.0296 58.4779 57.111 58.5839 57.1879C58.9562 57.4578 59.4174 57.6735 59.8921 57.8582C60.8492 58.2269 61.8901 58.4649 62.9366 58.6546C63.986 58.843 65.0547 58.9638 66.1271 59.0431C67.1995 59.1267 68.2783 59.1566 69.3565 59.1509C71.5112 59.1355 73.6697 58.9979 75.7741 58.6446C76.8222 58.4637 77.8634 58.2264 78.8219 57.8604C79.2965 57.6752 79.7576 57.4591 80.1297 57.1889C80.2355 57.112 80.3343 57.0308 80.4219 56.9471V53.7409C80.3198 53.8497 80.2136 53.9488 80.1064 54.0416Z" fill="#32C9CD"/>
<path d="M86.7507 92.4923C90.0084 91.3839 90.6694 84.6538 88.2272 77.4602C85.7849 70.2667 81.1641 65.3337 77.9064 66.4422C74.6487 67.5506 73.9877 74.2807 76.4299 81.4743C78.8722 88.6679 83.493 93.6008 86.7507 92.4923Z" fill="#32C9CD"/>
<path d="M88.4521 91.9145C91.5272 90.8682 92.0401 84.1884 89.5978 76.9949C87.1556 69.8013 82.6829 64.818 79.6079 65.8643C76.5328 66.9106 76.0199 73.5903 78.4622 80.7839C80.9044 87.9774 85.3771 92.9608 88.4521 91.9145Z" fill="#FCB340"/>
<path d="M89.8772 76.999C90.3122 78.2767 90.6752 79.5798 90.9461 80.9048C91.0777 81.5679 91.1987 82.2339 91.2888 82.9055C91.3772 83.5774 91.4392 84.2537 91.469 84.9334C91.525 86.2908 91.48 87.6704 91.1444 89.0298C90.975 89.7068 90.7326 90.3827 90.3335 91.0028C90.1327 91.3099 89.9 91.6086 89.6046 91.8572C89.3139 92.1078 88.9736 92.315 88.6024 92.4506C88.229 92.5796 87.8322 92.6339 87.4452 92.6227C87.0556 92.6161 86.6825 92.5308 86.3284 92.4179C85.6184 92.1864 84.995 91.8111 84.4285 91.3883C83.8612 90.9641 83.3485 90.4856 82.8738 89.9794C82.3999 89.4719 81.9605 88.9377 81.5568 88.3805C79.9342 86.1537 78.7581 83.6601 77.868 81.0856C77.0066 78.5012 76.4212 75.8066 76.3521 73.0512C76.3331 72.363 76.3562 71.6715 76.4231 70.9801C76.4915 70.289 76.6066 69.597 76.7982 68.9145C76.99 68.2338 77.2559 67.5558 77.6779 66.9391C77.89 66.6337 78.1339 66.3382 78.4387 66.0954C78.7389 65.8505 79.0863 65.6517 79.4609 65.526C79.8379 65.4069 80.2337 65.3637 80.6167 65.3852C81.0021 65.4021 81.3685 65.4968 81.7148 65.6177C82.4087 65.8659 83.0122 66.254 83.5587 66.6874C84.6523 67.5605 85.5278 68.6267 86.3096 69.7372C86.6998 70.2943 87.0624 70.8684 87.4012 71.4551C87.7385 72.0426 88.048 72.6444 88.3473 73.2506C88.939 74.4659 89.4445 75.7207 89.8772 76.999ZM89.3218 77.1881C88.4575 74.6858 87.3095 72.2611 85.7563 70.1337C84.9811 69.0756 84.0957 68.0885 83.0725 67.3204C82.5621 66.9394 82.0118 66.6166 81.4376 66.4329C80.8656 66.2406 80.2751 66.2199 79.7578 66.4004C79.2445 66.5933 78.8118 66.9811 78.4976 67.4856C78.177 67.9848 77.9607 68.5743 77.8103 69.1841C77.5083 70.4095 77.4608 71.7171 77.5163 73.0115C77.545 73.6604 77.6045 74.3098 77.6901 74.9569C77.7772 75.6041 77.8944 76.2475 78.0217 76.8894C78.2841 78.1722 78.6367 79.438 79.0596 80.6799C79.4803 81.9226 79.9712 83.1415 80.5441 84.3185C80.8339 84.9051 81.1327 85.4868 81.4575 86.053C81.7837 86.6181 82.1318 87.1695 82.5039 87.7014C83.2478 88.7615 84.0814 89.7692 85.0668 90.5567C85.5572 90.9484 86.0876 91.2839 86.6457 91.4842C87.2018 91.6926 87.7809 91.7362 88.3054 91.576C88.8255 91.4036 89.281 91.0268 89.6175 90.5254C89.961 90.0294 90.2006 89.4378 90.3734 88.8244C90.7172 87.5912 90.8184 86.2684 90.7889 84.9566C90.7254 82.3222 90.1597 79.6993 89.3218 77.1881Z" fill="white"/>
<path d="M80.6094 76.3039L82.0731 71.4139C82.1821 71.0496 82.5655 70.8429 82.9294 70.952C83.015 70.9777 83.092 71.0186 83.1583 71.0711L83.6271 71.4445C83.774 71.5615 83.8653 71.6929 83.9402 71.8286C84.0149 71.9642 84.0612 72.1072 84.0979 72.2528L84.3248 73.1239L84.7784 74.8662C85.0759 76.0289 85.372 77.192 85.6605 78.3571L86.0902 80.1054L86.5085 81.8568C86.7812 83.026 87.0547 84.1949 87.3045 85.3698C87.4079 85.8566 87.0977 86.3352 86.6115 86.4387C86.1515 86.5367 85.698 86.2606 85.5628 85.8188C85.2146 84.6691 84.8902 83.5133 84.5649 82.3577L84.0861 80.6219L83.619 78.8832C83.3095 77.7235 83.0077 76.5619 82.7073 75.3999L82.2641 73.655L82.0425 72.7825C82.0043 72.6375 81.976 72.4899 81.9759 72.335C81.9762 72.1799 81.9924 72.0208 82.0648 71.8472L83.6187 71.8778L82.155 76.7678C82.0271 77.1951 81.5774 77.4376 81.1507 77.3094C80.7238 77.1814 80.4815 76.7312 80.6094 76.3039Z" fill="#FFE7E6"/>
<path d="M58.0518 97.5284C64.6916 97.5284 70.0742 92.1398 70.0742 85.4927C70.0742 78.8456 64.6916 73.457 58.0518 73.457C51.4119 73.457 46.0293 78.8456 46.0293 85.4927C46.0293 92.1398 51.4119 97.5284 58.0518 97.5284Z" fill="#FCB340"/>
<path d="M59.3466 77.6977C58.7174 77.0417 57.676 77.0204 57.0207 77.6501L52.7512 81.7533C52.4001 82.0906 52.3138 82.6374 52.5742 83.0733C52.8769 83.58 53.5326 83.7451 54.0388 83.442L56.4851 81.9772L57.0083 92.6964C57.0363 93.2348 57.4681 93.6799 58.0175 93.7067C58.6034 93.7354 59.1018 93.2831 59.1304 92.6964L59.7978 79.0255L59.8032 78.9129C59.8228 78.4781 59.6715 78.0364 59.3466 77.6977Z" fill="#FFE7E6"/>
<path d="M48.5996 58.2767L14.5268 45.6955C12.072 44.862 10.7279 43.0593 11.4531 41.06L18.4077 21.889C19.133 19.8897 21.6059 18.5809 24.1386 19.5028L57.3334 32.414C59.7356 33.1775 60.1022 34.8014 59.377 36.8006L52.4224 55.9715C52.0677 58.1023 50.5946 59.0028 48.5996 58.2767Z" fill="#32C9CD"/>
<path d="M28.7475 32.075L20.5491 29.091L22.326 24.193C22.5365 23.6125 23.5532 23.1366 24.1325 23.3474L31.3032 26.1209L29.2243 31.8516C29.154 32.0452 28.9406 32.1452 28.7475 32.075Z" fill="#FCB340"/>
<path d="M24.5025 39.8075L17.4584 37.2437C17.0723 37.1031 16.873 36.6755 17.0134 36.2885C17.1538 35.9015 17.5807 35.7018 17.9667 35.8424L25.0108 38.4062C25.3969 38.5467 25.5962 38.9743 25.4558 39.3613C25.3154 39.7483 24.8886 39.9481 24.5025 39.8075Z" fill="#FFE7E6"/>
<path d="M35.6689 47.1554L32.1469 45.8735C31.986 45.8149 31.903 45.6368 31.9615 45.4755C32.02 45.3143 32.1978 45.2311 32.3587 45.2896L35.8807 46.5715C36.0416 46.6301 36.1246 46.8082 36.0661 46.9695C36.0076 47.1308 35.8298 47.214 35.6689 47.1554Z" fill="#FFE7E6"/>
<path d="M29.9698 45.1711L26.4477 43.8891C26.2867 43.8306 26.2038 43.6524 26.2623 43.4912C26.3208 43.3299 26.4986 43.2467 26.6595 43.3052L30.1816 44.5872C30.3425 44.6458 30.4255 44.8239 30.367 44.9852C30.3085 45.1464 30.1307 45.2296 29.9698 45.1711Z" fill="#FFE7E6"/>
<path d="M36.6458 44.2281L27.3461 40.8433C26.96 40.7028 26.7607 40.2751 26.9011 39.8882C27.0415 39.5012 27.4684 39.3015 27.8544 39.442L37.1542 42.8268C37.5402 42.9673 37.7395 43.3949 37.5991 43.7819C37.4587 44.1689 37.0319 44.3686 36.6458 44.2281Z" fill="#FFE7E6"/>
<path d="M41.5566 52.8752C43.8994 53.7279 46.5587 52.3239 47.4963 49.7394C48.4339 47.1548 47.2947 44.3683 44.952 43.5156C42.6092 42.6629 39.9499 44.0669 39.0123 46.6514C38.0747 49.236 39.2139 52.0225 41.5566 52.8752Z" fill="#FCB340"/>
<path d="M46.2976 54.5997C48.8727 55.5369 51.6622 54.3612 52.5283 51.9738C53.3944 49.5863 52.009 46.8911 49.434 45.9539C46.859 45.0166 44.0694 46.1923 43.2033 48.5797C42.3372 50.9672 43.7226 53.6624 46.2976 54.5997Z" fill="#FF564F"/>
<path d="M53.5325 39.717C53.5313 39.7165 53.53 39.716 53.5287 39.7156L50.3461 38.4767C50.2561 38.4417 50.2078 38.3433 50.235 38.2505L50.8425 36.1774C50.8651 36.1 50.9352 36.0459 51.0155 36.0436C51.096 36.0413 51.169 36.0911 51.196 36.1672L51.6553 37.4566L52.6112 36.5034C52.6571 36.4575 52.7234 36.439 52.7863 36.4544C52.8491 36.4697 52.8997 36.5168 52.9194 36.5786L53.2881 37.7321L54.2254 37.4444C54.2926 37.4238 54.3659 37.4429 54.4143 37.4939C54.4627 37.5448 54.4786 37.6189 54.4549 37.6852L53.7711 39.6043C53.7542 39.6517 53.719 39.6903 53.6733 39.7112C53.629 39.7317 53.5784 39.7337 53.5325 39.717ZM50.64 38.1912L53.4852 39.2988L53.9803 37.9096L53.2214 38.1425C53.1244 38.1723 53.021 38.1183 52.9898 38.0212L52.658 36.9826L51.7099 37.9281C51.6648 37.9732 51.5998 37.9919 51.5377 37.9778C51.4763 37.964 51.425 37.9188 51.4036 37.8588L51.0381 36.8326L50.64 38.1912Z" fill="#FFE7E6"/>
<path d="M51.1963 35.8122C51.1926 35.8108 51.1889 35.8095 51.1851 35.8079C50.9094 35.7006 50.7724 35.3886 50.8795 35.1123C50.9313 34.9785 51.0323 34.8728 51.1634 34.815C51.2909 34.7588 51.4322 34.7541 51.5626 34.8016C51.5663 34.8029 51.57 34.8043 51.5739 34.8059C51.8496 34.9131 51.9866 35.2252 51.8795 35.5015C51.8795 35.5015 51.8795 35.5015 51.8795 35.5016C51.7736 35.7739 51.4691 35.9115 51.1963 35.8122ZM51.4356 35.1518C51.3957 35.1373 51.3524 35.1387 51.3133 35.156C51.273 35.1737 51.2422 35.2061 51.2263 35.2471C51.1933 35.3317 51.2354 35.4275 51.32 35.4605C51.4107 35.4933 51.5001 35.4512 51.5329 35.3664C51.5657 35.2817 51.5237 35.186 51.4391 35.1531C51.4381 35.1527 51.4369 35.1523 51.4356 35.1518ZM51.7062 35.4339L51.7074 35.4344L51.7062 35.4339Z" fill="#FFE7E6"/>
<path d="M52.9285 36.1547C52.9237 36.153 52.919 36.1513 52.9143 36.1495C52.5713 36.016 52.4008 35.6277 52.5339 35.2838C52.6656 34.9447 53.0446 34.7737 53.384 34.8972C53.3888 34.899 53.3934 34.9006 53.398 34.9025C53.5643 34.9672 53.6953 35.0929 53.7671 35.2564C53.8389 35.4198 53.8428 35.6016 53.7783 35.768C53.7136 35.9346 53.5883 36.066 53.425 36.138C53.2665 36.208 53.0908 36.2138 52.9285 36.1547ZM53.2571 35.2475C53.1068 35.1928 52.9389 35.2685 52.8808 35.4186C52.8218 35.5707 52.8973 35.7427 53.0491 35.8018C53.1239 35.8316 53.2031 35.8286 53.2753 35.7968C53.3476 35.7649 53.4031 35.7067 53.4315 35.633C53.4315 35.633 53.4315 35.633 53.4316 35.6329C53.4603 35.5592 53.4585 35.4787 53.4267 35.4064C53.3949 35.334 53.3369 35.2784 53.2632 35.2497C53.2612 35.2491 53.2593 35.2483 53.2571 35.2475Z" fill="#FFE7E6"/>
<path d="M54.3653 37.1326C54.3615 37.1312 54.3578 37.1298 54.354 37.1283C54.0783 37.021 53.9413 36.709 54.0484 36.4327C54.1003 36.2987 54.2012 36.1932 54.3324 36.1353C54.4635 36.0774 54.6075 36.0729 54.7429 36.1262C55.0186 36.2335 55.1556 36.5456 55.0485 36.8219L55.0484 36.822C54.9426 37.0944 54.638 37.2318 54.3653 37.1326ZM54.6045 36.4723C54.5645 36.4578 54.5212 36.4592 54.4822 36.4765C54.4419 36.4942 54.4111 36.5266 54.3952 36.5676C54.3622 36.6524 54.4042 36.748 54.4889 36.781C54.5787 36.815 54.669 36.7717 54.7017 36.6868C54.7346 36.6022 54.6926 36.5065 54.608 36.4736C54.607 36.4732 54.6057 36.4728 54.6045 36.4723ZM54.8752 36.7545L54.8764 36.7549L54.8752 36.7545Z" fill="#FFE7E6"/>
<path d="M51.31 40.7836C49.3557 40.0722 48.3438 37.9002 49.0542 35.9416C49.7647 33.983 51.9327 32.9683 53.887 33.6797C55.8412 34.3909 56.8531 36.563 56.1427 38.5216C55.4322 40.4801 53.2643 41.4949 51.31 40.7836ZM53.7599 34.03C51.9984 33.3888 50.0442 34.3034 49.4038 36.0688C48.7634 37.8342 49.6755 39.7921 51.4371 40.4332C53.1985 41.0744 55.1527 40.1597 55.7931 38.3943C56.4335 36.6289 55.5214 34.6711 53.7599 34.03Z" fill="#FFE7E6"/>
</svg>
