<svg width="75" height="75" viewBox="0 0 75 75" fill="none" xmlns="http://www.w3.org/2000/svg">
<g clip-path="url(#clip0)">
<path d="M57.4677 12.4343C57.5004 12.4367 57.533 12.439 57.5662 12.439C57.6226 12.439 57.679 12.4343 57.7341 12.4266C59.2109 12.4568 60.3928 13.6613 60.3946 15.1381C60.3946 15.8091 60.9387 16.3532 61.6097 16.3532C62.2807 16.3532 62.8248 15.8091 62.8248 15.1381C62.8218 12.7227 61.1404 10.633 58.7813 10.1132V8.94559C58.7813 8.27454 58.2373 7.73047 57.5662 7.73047C56.8952 7.73047 56.3511 8.27454 56.3511 8.94559V10.1684C53.8568 10.8353 52.243 13.2483 52.5794 15.8085C52.9158 18.3687 55.098 20.2827 57.6801 20.2827C59.1795 20.2827 60.3946 21.4984 60.3946 22.9977C60.3946 24.4965 59.1795 25.7122 57.6801 25.7122C56.1808 25.7122 54.9657 24.4965 54.9657 22.9977C54.9657 22.3267 54.4216 21.7826 53.7506 21.7826C53.0796 21.7826 52.5355 22.3267 52.5355 22.9977C52.5385 25.3259 54.1024 27.3628 56.3511 27.9674V29.2988C56.3511 29.9698 56.8952 30.5139 57.5662 30.5139C58.2373 30.5139 58.7813 29.9698 58.7813 29.2988V28.0231C61.3474 27.4613 63.0782 25.056 62.7951 22.4442C62.5127 19.8324 60.3074 17.8531 57.6801 17.8537C56.2224 17.8543 55.0245 16.7032 54.9669 15.2466C54.9099 13.79 56.0141 12.5482 57.4677 12.4349V12.4343Z" fill="white"/>
<path d="M57.7495 1.78955C50.2743 1.78955 43.8949 6.66722 41.505 13.1985H11.346C10.678 13.1985 10.1357 13.8007 10.1309 14.4682L9.84375 57.0945H1.24716C0.576112 57.0945 0 57.5805 0 58.2527V63.662C0.0154262 68.7544 4.02626 72.9379 9.11337 73.1681V73.1948H46.6301V73.1592C46.9339 73.1705 47.0591 73.1948 47.2513 73.1948H47.2774C52.5425 73.1865 56.8067 68.9158 56.8067 63.6507V36.3011C57.1105 36.3177 57.432 36.3266 57.7465 36.3266C67.2592 36.3266 75.0002 28.5708 75.0002 19.0575C75.0002 9.54481 67.2627 1.78955 57.7495 1.78955ZM9.57557 70.7646H9.56785C5.63712 70.7592 2.44803 67.5808 2.43023 63.6495V59.5248H37.6686V63.6323C37.6704 66.1681 38.6832 68.599 40.4821 70.3866C40.6097 70.5142 40.7681 70.6127 40.9016 70.7646H9.57557ZM54.3765 63.6495C54.377 67.5737 51.1998 70.7569 47.2762 70.7646H47.2531C43.3134 70.7575 40.1184 67.5725 40.0988 63.6335V58.2527C40.1089 57.9418 39.9903 57.641 39.7701 57.4214C39.55 57.2019 39.2492 57.0839 38.9389 57.0945H12.274L12.5528 15.6287H40.8304C40.615 16.7412 40.5035 17.8708 40.4975 19.0035C40.4952 21.3987 40.9947 23.7672 41.9642 25.9572H30.4871C29.8154 25.9572 29.272 26.5013 29.272 27.1723C29.272 27.8433 29.8154 28.3874 30.4871 28.3874H43.2826C45.7894 32.3294 49.7966 35.0777 54.3765 35.9973V63.6495ZM57.7495 33.897C49.564 33.897 42.9278 27.2613 42.9284 19.0753C42.9284 10.8893 49.564 4.2536 57.7501 4.2536C65.9355 4.2536 72.5712 10.8899 72.5712 19.0753C72.5623 27.2571 65.9319 33.8881 57.7495 33.897Z" fill="white"/>
<path d="M22.6871 34.0439C20.5422 34.0439 18.7979 35.7331 18.7979 37.8097C18.7979 39.8864 20.5422 41.5755 22.6871 41.5755C24.8319 41.5755 26.5769 39.8864 26.5769 37.8097C26.5769 35.7331 24.8319 34.0439 22.6871 34.0439ZM22.6871 39.1453C21.8819 39.1453 21.2281 38.546 21.2281 37.8097C21.2281 37.0728 21.8825 36.4742 22.6871 36.4742C23.4916 36.4742 24.1466 37.0734 24.1466 37.8097C24.1466 38.546 23.4916 39.1453 22.6871 39.1453Z" fill="white"/>
<path d="M29.2725 37.8045C29.2725 38.4755 29.8159 39.0196 30.4876 39.0196H46.6875C47.3586 39.0196 47.9027 38.4755 47.9027 37.8045C47.9027 37.1334 47.3586 36.5894 46.6875 36.5894H30.4876C29.8159 36.5894 29.2725 37.1334 29.2725 37.8045Z" fill="white"/>
<path d="M22.6871 23.481C20.5422 23.481 18.7979 25.1707 18.7979 27.2473C18.7979 29.324 20.5422 31.0131 22.6871 31.0131C24.8319 31.0131 26.5769 29.324 26.5769 27.2473C26.5769 25.1707 24.8319 23.481 22.6871 23.481ZM22.6871 28.5829C21.8819 28.5829 21.2281 27.9837 21.2281 27.2473C21.2281 26.511 21.8825 25.9112 22.6871 25.9112C23.4916 25.9112 24.1466 26.5104 24.1466 27.2473C24.1466 27.9837 23.4916 28.5835 22.6871 28.5835V28.5829Z" fill="white"/>
<path d="M22.6871 44.6055C20.5422 44.6055 18.7979 46.2946 18.7979 48.3713C18.7979 50.4479 20.5422 52.137 22.6871 52.137C24.8319 52.137 26.5769 50.4479 26.5769 48.3713C26.5769 46.2946 24.8319 44.6055 22.6871 44.6055ZM22.6871 49.7068C21.8819 49.7068 21.2281 49.1082 21.2281 48.3713C21.2281 47.6349 21.8825 47.0357 22.6871 47.0357C23.4916 47.0357 24.1466 47.6349 24.1466 48.3713C24.1466 49.1076 23.4916 49.7068 22.6871 49.7068Z" fill="white"/>
<path d="M46.6875 47.2217H30.4876C29.8159 47.2217 29.2725 47.7658 29.2725 48.4368C29.2725 49.1078 29.8159 49.6519 30.4876 49.6519H46.6875C47.3586 49.6519 47.9027 49.1078 47.9027 48.4368C47.9027 47.7658 47.3586 47.2217 46.6875 47.2217Z" fill="white"/>
</g>
<defs>
<clipPath id="clip0">
<rect width="75" height="75" fill="white"/>
</clipPath>
</defs>
</svg>
