<svg width="80" height="80" viewBox="0 0 80 80" fill="none" xmlns="http://www.w3.org/2000/svg">
<path d="M32.3915 36.3904L24.3915 44.3904C24.0448 44.7252 23.9058 45.2209 24.0279 45.6871C24.1499 46.1532 24.5139 46.5173 24.9801 46.6393C25.4463 46.7613 25.942 46.6223 26.2768 46.2757L34.2768 38.2757C34.7821 37.7526 34.7749 36.9209 34.2606 36.4066C33.7462 35.8923 32.9146 35.8851 32.3915 36.3904Z" fill="white"/>
<path d="M25.3333 38.6667C26.0697 38.6667 26.6667 38.0697 26.6667 37.3333C26.6667 36.597 26.0697 36 25.3333 36C24.597 36 24 36.597 24 37.3333C24 38.0697 24.597 38.6667 25.3333 38.6667Z" fill="white"/>
<path d="M33.3333 46.6667C34.0697 46.6667 34.6667 46.0697 34.6667 45.3333C34.6667 44.597 34.0697 44 33.3333 44C32.597 44 32 44.597 32 45.3333C32 46.0697 32.597 46.6667 33.3333 46.6667Z" fill="white"/>
<path d="M38.6667 70.6668C38.6667 65.5122 34.488 61.3335 29.3333 61.3335C24.1787 61.3335 20 65.5122 20 70.6668C20 75.8215 24.1787 80.0002 29.3333 80.0002C34.4853 79.9936 38.6601 75.8188 38.6667 70.6668ZM22.6667 70.6668C22.6667 66.9849 25.6514 64.0002 29.3333 64.0002C33.0152 64.0002 36 66.9849 36 70.6668C36 74.3487 33.0152 77.3335 29.3333 77.3335C25.6533 77.3291 22.6711 74.3469 22.6667 70.6668Z" fill="white"/>
<path d="M61.3333 2.03535e-06C53.0843 0.0125413 45.8186 5.43064 43.4533 13.3333H4C1.79086 13.3333 0 15.1242 0 17.3333V22.6667C0 24.8758 1.79086 26.6667 4 26.6667H4.85733L17.692 37.1667C18.3107 37.6714 18.6688 38.4282 18.6667 39.2267V54.6667C18.6725 56.8734 20.46 58.6608 22.6667 58.6667C23.2073 58.666 23.7424 58.5567 24.24 58.3453L37.5733 52.628C39.0485 52 40.0043 50.5499 40 48.9467V39.2267C39.998 38.4276 40.3566 37.6702 40.976 37.1653L47.852 31.5427C53.7219 37.6874 63.0025 39.0889 70.4251 34.9515C77.8477 30.8141 81.5364 22.1835 79.3971 13.9594C77.2579 5.73529 69.8311 -0.00394572 61.3333 2.03535e-06ZM39.2907 35.0987C38.049 36.109 37.3298 37.6259 37.3333 39.2267V48.9467C37.3329 49.4782 37.0194 49.9595 36.5333 50.1747L23.2 55.892C22.7854 56.0713 22.308 56.0271 21.9333 55.7747C21.5575 55.5318 21.3313 55.1142 21.3333 54.6667V39.2267C21.3392 37.6241 20.6203 36.1049 19.3773 35.0933L9.06667 26.6667H13.3333C14.0697 26.6667 14.6667 26.0697 14.6667 25.3333C14.6667 24.597 14.0697 24 13.3333 24H4C3.26362 24 2.66667 23.403 2.66667 22.6667V17.3333C2.66667 16.597 3.26362 16 4 16H42.88C42.4626 18.6757 42.6587 21.4112 43.4533 24H18.6667C17.9303 24 17.3333 24.597 17.3333 25.3333C17.3333 26.0697 17.9303 26.6667 18.6667 26.6667H44.4933C44.9627 27.6538 45.5177 28.5978 46.152 29.488L39.2907 35.0987ZM61.3333 34.6667C52.4968 34.6667 45.3333 27.5032 45.3333 18.6667C45.3333 9.83011 52.4968 2.66667 61.3333 2.66667C70.1699 2.66667 77.3333 9.83011 77.3333 18.6667C77.3238 27.4993 70.1659 34.6571 61.3333 34.6667Z" fill="white"/>
<path d="M67.0572 12.3904L57.3332 22.1144L55.6092 20.3904C55.0861 19.8851 54.2544 19.8923 53.7401 20.4066C53.2258 20.921 53.2186 21.7526 53.7239 22.2757L56.3906 24.9424C56.9112 25.4629 57.7552 25.4629 58.2759 24.9424L68.9426 14.2757C69.4479 13.7526 69.4407 12.9209 68.9263 12.4066C68.412 11.8923 67.5804 11.8851 67.0572 12.3904Z" fill="white"/>
</svg>
