<svg width="79" height="100" viewBox="0 0 79 100" fill="none" xmlns="http://www.w3.org/2000/svg">
<path d="M61.7195 72.3091L61.7108 72.2979C61.7098 72.3051 61.708 72.3116 61.707 72.3184L61.7195 72.3091Z" fill="#FB9A00"/>
<path d="M56.2625 82.8086C56.3291 82.7429 56.3949 82.6769 56.4604 82.6104L56.2402 82.7794L56.2625 82.8086Z" fill="#FB9A00"/>
<path d="M52.6377 85.5412L52.682 85.5987C53.1537 85.3145 53.6086 85.0082 54.0507 84.687L53.9401 84.543L52.6377 85.5412Z" fill="#FB9A00"/>
<path d="M60.4402 76.6623C60.6546 76.1591 60.8445 75.6443 61.0157 75.1221L59.9092 75.9703L60.4402 76.6623Z" fill="#FB9A00"/>
<path d="M56.3096 78.7295L57.3086 80.0312L58.6113 79.0333L57.6123 77.7316L56.3096 78.7295Z" fill="#FB9A00"/>
<path d="M52.7061 81.4922L53.7051 82.7939L55.0078 81.796L54.0088 80.4943L52.7061 81.4922Z" fill="#FB9A00"/>
<path d="M49.1035 84.254L50.1025 85.5557L51.4052 84.5577L50.4062 83.256L49.1035 84.254Z" fill="#FB9A00"/>
<path d="M47.114 87.8465L47.7981 87.322L46.7992 86.0205L45.4971 87.0188L46.2688 88.0243C46.3358 88.0118 46.4024 88.003 46.4697 87.9903C46.6866 87.9475 46.9001 87.896 47.114 87.8465Z" fill="#FB9A00"/>
<path d="M59.417 72.0058L60.4159 73.3073L61.7058 72.3186C61.7068 72.3118 61.7086 72.3048 61.7096 72.2981L60.7194 71.0078L59.417 72.0058Z" fill="#FB9A00"/>
<path d="M58.1132 75.0742L57.1143 73.7725L55.8116 74.7704L56.8106 76.0721L58.1132 75.0742Z" fill="#FB9A00"/>
<path d="M54.5088 77.8359L53.5098 76.5342L52.2071 77.5321L53.2061 78.8338L54.5088 77.8359Z" fill="#FB9A00"/>
<path d="M50.9062 80.5986L49.9072 79.2969L48.6046 80.2948L49.6035 81.5965L50.9062 80.5986Z" fill="#FB9A00"/>
<path d="M47.3037 83.3603L46.3047 82.0586L45.002 83.0565L46.001 84.3582L47.3037 83.3603Z" fill="#FB9A00"/>
<path d="M59.4864 67.9551L60.4854 69.2568L61.788 68.2589L60.789 66.9572L59.4864 67.9551Z" fill="#FB9A00"/>
<path d="M55.8828 70.7178L56.8818 72.0195L58.1845 71.0216L57.1855 69.7199L55.8828 70.7178Z" fill="#FB9A00"/>
<path d="M52.2784 73.4795L53.2773 74.7812L54.58 73.7833L53.581 72.4816L52.2784 73.4795Z" fill="#FB9A00"/>
<path d="M48.6768 76.2422L49.6758 77.5439L50.9785 76.546L49.9795 75.2443L48.6768 76.2422Z" fill="#FB9A00"/>
<path d="M45.0743 79.0049L46.0732 80.3066L47.3759 79.3087L46.3769 78.007L45.0743 79.0049Z" fill="#FB9A00"/>
<path d="M41.4717 81.7667L42.4707 83.0684L43.7734 82.0704L42.7744 80.7687L41.4717 81.7667Z" fill="#FB9A00"/>
<path d="M61.29 64.3007L60.291 62.999L58.9883 63.997L59.9873 65.2987L61.29 64.3007Z" fill="#FB9A00"/>
<path d="M57.6865 67.0624L56.6875 65.7607L55.3848 66.7587L56.3838 68.0604L57.6865 67.0624Z" fill="#FB9A00"/>
<path d="M54.084 69.8242L53.085 68.5225L51.7823 69.5204L52.7813 70.8221L54.084 69.8242Z" fill="#FB9A00"/>
<path d="M50.4804 72.5859L49.4814 71.2842L48.1788 72.2821L49.1778 73.5838L50.4804 72.5859Z" fill="#FB9A00"/>
<path d="M46.8769 75.3486L45.8779 74.0469L44.5753 75.0448L45.5742 76.3465L46.8769 75.3486Z" fill="#FB9A00"/>
<path d="M43.2744 78.1103L42.2754 76.8086L40.9727 77.8065L41.9717 79.1082L43.2744 78.1103Z" fill="#FB9A00"/>
<path d="M60.056 61.2481L60.2027 61.1356C59.9692 60.6276 59.7137 60.1338 59.4392 59.6533L59.0566 59.9466L60.056 61.2481Z" fill="#FB9A00"/>
<path d="M55.4561 62.7061L56.4551 64.0078L57.7578 63.0099L56.7588 61.7082L55.4561 62.7061Z" fill="#FB9A00"/>
<path d="M51.8535 65.4678L52.8525 66.7695L54.1552 65.7716L53.1562 64.4699L51.8535 65.4678Z" fill="#FB9A00"/>
<path d="M48.251 68.2305L49.25 69.5322L50.5527 68.5343L49.5537 67.2326L48.251 68.2305Z" fill="#FB9A00"/>
<path d="M44.6475 70.9922L45.6465 72.2939L46.9492 71.296L45.9502 69.9943L44.6475 70.9922Z" fill="#FB9A00"/>
<path d="M41.045 73.7549L42.0439 75.0566L43.3466 74.0587L42.3476 72.757L41.045 73.7549Z" fill="#FB9A00"/>
<path d="M37.4424 76.5167L38.4414 77.8184L39.7441 76.8204L38.7451 75.5187L37.4424 76.5167Z" fill="#FB9A00"/>
<path d="M57.2617 59.0507L56.2627 57.749L54.96 58.747L55.959 60.0487L57.2617 59.0507Z" fill="#FB9A00"/>
<path d="M51.3623 61.503L52.3613 62.8047L53.664 61.8067L52.665 60.505L51.3623 61.503Z" fill="#FB9A00"/>
<path d="M47.7598 64.2657L48.7588 65.5674L50.0615 64.5694L49.0625 63.2677L47.7598 64.2657Z" fill="#FB9A00"/>
<path d="M46.4511 67.3359L45.4521 66.0342L44.1495 67.0321L45.1485 68.3338L46.4511 67.3359Z" fill="#FB9A00"/>
<path d="M42.8476 70.0986L41.8486 68.7969L40.546 69.7948L41.5449 71.0965L42.8476 70.0986Z" fill="#FB9A00"/>
<path d="M39.2451 72.8603L38.2461 71.5586L36.9434 72.5565L37.9424 73.8582L39.2451 72.8603Z" fill="#FB9A00"/>
<path d="M56.0704 55.3367C55.6913 54.973 55.3004 54.623 54.8936 54.292L55.8339 55.5172L56.0704 55.3367Z" fill="#FB9A00"/>
<path d="M53.5302 57.2841L52.5312 55.9824L51.2286 56.9804L52.2276 58.2821L53.5302 57.2841Z" fill="#FB9A00"/>
<path d="M47.6319 59.7374L48.6309 61.0391L49.9335 60.0411L48.9345 58.7394L47.6319 59.7374Z" fill="#FB9A00"/>
<path d="M46.3242 62.8085L45.3252 61.5068L44.0225 62.5048L45.0215 63.8065L46.3242 62.8085Z" fill="#FB9A00"/>
<path d="M42.7216 65.5703L41.7227 64.2686L40.42 65.2665L41.419 66.5682L42.7216 65.5703Z" fill="#FB9A00"/>
<path d="M39.1191 68.332L38.1201 67.0303L36.8174 68.0282L37.8164 69.3299L39.1191 68.332Z" fill="#FB9A00"/>
<path d="M33.2198 70.7872L34.2188 72.0889L35.5214 71.0909L34.5224 69.7892L33.2198 70.7872Z" fill="#FB9A00"/>
<path d="M51.7399 54.3156L53.042 53.3174L52.5288 52.6486C52.2798 52.5016 52.0279 52.3594 51.7724 52.2236L50.7412 53.0144L51.7399 54.3156Z" fill="#FB9A00"/>
<path d="M49.4365 56.082L48.4375 54.7803L47.1348 55.7782L48.1338 57.0799L49.4365 56.082Z" fill="#FB9A00"/>
<path d="M45.833 58.8437L44.834 57.542L43.5313 58.5399L44.5303 59.8416L45.833 58.8437Z" fill="#FB9A00"/>
<path d="M42.2304 61.6064L41.2314 60.3047L39.9288 61.3026L40.9278 62.6043L42.2304 61.6064Z" fill="#FB9A00"/>
<path d="M38.6269 64.3681L37.6279 63.0664L36.3253 64.0643L37.3242 65.3661L38.6269 64.3681Z" fill="#FB9A00"/>
<path d="M35.0244 67.1298L34.0254 65.8281L32.7227 66.8261L33.7217 68.1278L35.0244 67.1298Z" fill="#FB9A00"/>
<path d="M48.2023 53.0306L49.5044 52.0323L48.6327 50.8963C48.5516 50.8703 48.4713 50.8441 48.3897 50.8193L47.2031 51.7288L48.2023 53.0306Z" fill="#FB9A00"/>
<path d="M45.8994 54.7968L44.9004 53.4951L43.5977 54.4931L44.5967 55.7948L45.8994 54.7968Z" fill="#FB9A00"/>
<path d="M40 57.251L40.999 58.5527L42.3017 57.5548L41.3027 56.2531L40 57.251Z" fill="#FB9A00"/>
<path d="M36.3965 60.0128L37.3955 61.3145L38.6982 60.3165L37.6992 59.0148L36.3965 60.0128Z" fill="#FB9A00"/>
<path d="M32.795 62.7754L33.7939 64.0771L35.0966 63.0792L34.0976 61.7775L32.795 62.7754Z" fill="#FB9A00"/>
<path d="M29.1905 65.5381L30.1895 66.8398L31.4921 65.8419L30.4931 64.5402L29.1905 65.5381Z" fill="#FB9A00"/>
<path d="M44.1075 51.8279L45.4097 50.8296L44.8397 50.0869C44.4916 50.0491 44.1411 50.0236 43.789 50.0049L43.1084 50.5266L44.1075 51.8279Z" fill="#FB9A00"/>
<path d="M41.8047 53.5937L40.8057 52.292L39.503 53.2899L40.502 54.5916L41.8047 53.5937Z" fill="#FB9A00"/>
<path d="M38.2011 56.3554L37.2021 55.0537L35.8995 56.0517L36.8985 57.3534L38.2011 56.3554Z" fill="#FB9A00"/>
<path d="M34.5986 59.1181L33.5996 57.8164L32.2969 58.8143L33.2959 60.116L34.5986 59.1181Z" fill="#FB9A00"/>
<path d="M30.9951 61.8798L29.9961 60.5781L28.6934 61.5761L29.6924 62.8778L30.9951 61.8798Z" fill="#FB9A00"/>
<path d="M41.2197 50.0449C40.9024 50.0709 40.5846 50.1054 40.2666 50.1474L40.5701 50.5432L41.2197 50.0449Z" fill="#FB9A00"/>
<path d="M38.2666 52.3095L37.2676 51.0078L35.9649 52.0058L36.9639 53.3075L38.2666 52.3095Z" fill="#FB9A00"/>
<path d="M34.664 55.0703L33.665 53.7686L32.3624 54.7665L33.3614 56.0682L34.664 55.0703Z" fill="#FB9A00"/>
<path d="M31.0605 57.833L30.0615 56.5312L28.7588 57.5292L29.7578 58.8309L31.0605 57.833Z" fill="#FB9A00"/>
<path d="M27.4601 60.5937L26.461 59.292L26.1947 59.496C25.954 59.908 25.7268 60.3275 25.5166 60.7567L26.1574 61.592L27.4601 60.5937Z" fill="#FB9A00"/>
<path d="M33.7788 33.3149C32.817 31.6622 30.3072 31.1834 28.8041 32.3667C28.3222 32.7462 27.9248 33.2687 27.344 33.4652C25.8947 33.9554 24.5163 32.1497 23.0019 32.3682C20.4121 32.7414 21.1052 37.8642 18.5161 38.2429C17.0721 38.4542 15.8367 36.8254 14.3924 37.0327C12.3258 37.3294 12.0313 40.9029 9.95315 41.1039C9.18446 41.1782 8.46807 40.7207 7.70388 40.6112C6.93944 40.5014 5.94805 41.1009 6.21829 41.8237C6.64918 43.7944 6.58913 43.7944 7.1654 45.6434C8.27189 49.1907 9.23901 52.8537 12.2615 55.0179C15.2839 57.1819 18.5174 58.4957 22.0878 59.5307C25.3372 60.4724 29.0944 61.1817 32.4634 60.8712C36.8443 60.4674 40.8067 57.9319 43.8013 54.7112C46.796 51.4902 48.9562 47.6007 51.0866 43.7534C50.2211 44.5624 48.7848 43.8659 48.0164 42.9644C47.2477 42.0629 46.5974 40.8954 45.4473 40.6087C44.4684 40.3647 43.4067 40.8582 42.4409 40.5662C40.5397 39.9912 40.2266 36.8542 38.2594 36.5799C37.4992 36.4739 36.716 36.8712 35.9738 36.6767C34.6298 36.3242 34.4775 34.5157 33.7788 33.3149Z" fill="#E94A47"/>
<path d="M32.9426 58.9283C32.6981 58.8125 32.4539 58.697 32.2094 58.5813C32.4667 54.3048 32.4452 50.0118 32.1456 45.7383C30.3838 46.8815 28.2078 47.3705 26.126 47.0913C26.7413 51.1383 26.7828 55.2718 26.2498 59.3303C28.4638 59.0063 30.7056 58.8713 32.9426 58.9283Z" fill="#F2A19C"/>
<path d="M26.7651 87.9177L3.51566 91.2224L0 66.5176L23.2497 63.2129L26.7651 87.9177Z" fill="#FB9A00"/>
<path d="M18.2416 49.5674L16.1982 50.6144H18.7781L18.2416 49.5674Z" fill="#32C9CD"/>
<path d="M9.05078 54.2742H20.6542L19.6663 52.3477H12.8119L9.05078 54.2742Z" fill="#32C9CD"/>
<path d="M1.9043 57.9353H22.5316L21.5435 56.0088H5.66568L1.9043 57.9353Z" fill="#32C9CD"/>
<path d="M2.87168 61.5957H24.4088L23.4209 59.6689H1.88379L2.87168 61.5957Z" fill="#32C9CD"/>
<path d="M4.74863 65.2566H26.286L25.2981 63.3301H3.76074L4.74863 65.2566Z" fill="#32C9CD"/>
<path d="M6.62558 68.9172H22.1138L25.8751 66.9902H5.6377L6.62558 68.9172Z" fill="#32C9CD"/>
<path d="M8.50254 72.5779H14.9669L18.7282 70.6514H7.51465L8.50254 72.5779Z" fill="#32C9CD"/>
<path d="M9.84726 75.2L11.5818 74.3115H9.3916L9.84726 75.2Z" fill="#32C9CD"/>
<path d="M70.3913 29.128C71.0658 29.128 71.6126 28.5817 71.6126 27.9078C71.6126 27.2338 71.0658 26.6875 70.3913 26.6875C69.7167 26.6875 69.1699 27.2338 69.1699 27.9078C69.1699 28.5817 69.7167 29.128 70.3913 29.128Z" fill="#D9E021"/>
<path d="M54.1055 2.31022L53.7334 3.50684L54.9309 3.87853L55.303 2.68191L54.1055 2.31022Z" fill="#A1C3FC"/>
<path d="M61.4673 4.01033L60.4541 7.26855L63.7143 8.28052L64.7275 5.0223L61.4673 4.01033Z" fill="#E94A47"/>
<path d="M56.6509 16.4156L55.6377 19.6738L58.8979 20.6858L59.9111 17.4276L56.6509 16.4156Z" fill="#1D72D8"/>
<path d="M58.6024 10.4302C58.5511 10.4302 58.5023 10.4012 58.479 10.3514C56.8811 6.91043 57.8665 2.47393 60.7716 0.0319263C60.8289 -0.0165737 60.9145 -0.00882369 60.9628 0.0484263C61.011 0.105676 61.0035 0.191426 60.9462 0.239426C58.1315 2.60518 57.1768 6.90343 58.7252 10.2374C58.7568 10.3052 58.727 10.3859 58.6592 10.4177C58.6414 10.4259 58.6216 10.4302 58.6024 10.4302Z" fill="#23286B"/>
<path d="M70.5793 23.7288C70.5437 23.7288 70.5082 23.7151 70.4814 23.6873C70.4291 23.6336 70.4311 23.5476 70.4849 23.4956C72.4517 21.6001 75.902 21.4568 78.0199 23.1816C78.078 23.2288 78.0868 23.3141 78.0395 23.3721C77.9924 23.4306 77.9071 23.4388 77.8485 23.3916C75.8322 21.7493 72.5463 21.8863 70.6736 23.6908C70.6473 23.7161 70.613 23.7288 70.5793 23.7288Z" fill="#23286B"/>
<path d="M28.5787 50.201C29.8271 50.0978 30.9669 49.421 31.8907 48.5753C33.8557 46.776 35.009 44.1223 34.9827 41.4588C34.9742 40.5973 34.8468 39.7315 34.5481 38.9235C33.4994 36.087 30.1516 34.3218 27.2167 35.058C26.0697 35.3458 25.0055 35.972 24.218 36.8538C22.6271 38.6345 22.3058 41.2393 22.6098 43.607C22.8188 45.2333 23.3072 46.866 24.3219 48.1543C25.3365 49.4425 26.9437 50.336 28.5787 50.201Z" fill="#FFBEB6"/>
<path d="M24.3545 44.3427C25.2563 45.6177 26.9318 45.855 28.4937 45.8027C29.9793 45.7535 31.0067 45.126 32.1805 44.0957C31.5842 45.315 31.6318 45.5727 30.792 46.5267C29.9032 47.5365 29.0357 48.0782 27.4363 47.7802C27.1242 47.7222 26.353 47.2502 26.1078 47.0485C25.0276 46.1625 24.9325 45.615 24.3545 44.3427Z" fill="white"/>
<path d="M24.0543 51.522C24.0177 51.522 23.9812 51.5073 23.9547 51.4785C23.5441 51.0348 23.9116 50.4388 24.2072 49.96L24.29 49.8248C24.7334 49.0893 24.7366 48.0995 24.2985 47.3613C24.2479 47.2758 24.1911 47.1908 24.1343 47.105C23.9096 46.767 23.6774 46.4178 23.741 46C23.794 45.6515 24.04 45.3768 24.2777 45.1115C24.5475 44.8105 24.7807 44.5503 24.6743 44.2543C24.6133 44.084 24.4016 43.958 24.1971 43.8368C23.9111 43.6668 23.5868 43.474 23.6469 43.109C23.7262 42.6227 24.1519 42.3575 24.5632 42.1013C24.7321 41.9963 24.8915 41.8965 25.0264 41.7838C25.3259 41.533 25.0264 40.9195 24.9271 40.7377C24.8662 40.6257 24.7977 40.5172 24.7291 40.4085C24.566 40.1487 24.3968 39.8803 24.3253 39.5668C24.1804 38.9305 24.4852 38.2015 25.1017 37.7085C25.6234 37.2917 26.4034 37.0282 27.0935 36.8147C27.1651 36.7925 27.2411 36.8325 27.2632 36.904C27.2854 36.9755 27.2454 37.0515 27.1736 37.0737C26.5072 37.2805 25.7558 37.5327 25.2709 37.9205C24.8642 38.2455 24.4416 38.8557 24.5897 39.5067C24.6508 39.775 24.8004 40.0127 24.9583 40.2642C25.0296 40.3775 25.1012 40.4912 25.1648 40.608C25.3234 40.9002 25.6449 41.6195 25.1993 41.9923C25.0499 42.117 24.875 42.2263 24.7056 42.3318C24.329 42.5665 23.9732 42.788 23.9134 43.1533C23.8849 43.327 24.0548 43.4378 24.3345 43.6038C24.5692 43.7435 24.8352 43.9013 24.9288 44.1633C25.0889 44.6115 24.7789 44.9578 24.4786 45.2928C24.2672 45.5288 24.0488 45.7728 24.0077 46.0413C23.9599 46.3553 24.1536 46.647 24.3588 46.9555C24.4181 47.045 24.4774 47.134 24.5307 47.2235C25.0184 48.045 25.0144 49.1468 24.5212 49.9648L24.4369 50.1025C24.1223 50.612 23.9019 51.0235 24.1526 51.2943C24.2037 51.3493 24.1999 51.4353 24.1448 51.486C24.1203 51.51 24.0873 51.522 24.0543 51.522Z" fill="#E94A47"/>
<path d="M77.0289 13.2555C76.0297 13.322 75.1512 13.9515 74.2124 14.3C73.8846 14.4215 73.4674 14.525 73.2262 14.272C72.94 13.9725 73.1739 13.486 73.4044 13.141C74.7083 11.191 77.377 6.37124 76.266 6.74749C73.8823 8.06524 73.8978 11.6347 71.7899 13.359C71.3876 13.3212 71.6513 12.8602 71.8647 12.5172C72.6292 11.2907 73.3939 10.0635 74.1583 8.83699C74.5392 8.22574 74.9275 7.60524 75.464 7.12474C75.9364 6.70124 76.5862 6.16249 76.324 5.58474C75.6677 5.39774 75.0326 5.91299 74.5734 6.41824C73.7142 7.36349 72.971 8.41425 72.3665 9.5395C71.9118 10.386 71.5309 11.2802 70.9489 12.045C70.6789 12.3995 70.3601 12.7457 70.0614 13.0997C70.0146 13.0325 69.9721 12.9617 69.9415 12.8815C69.7649 12.4187 69.9708 11.907 70.174 11.456C71.1066 9.384 73.3013 5.33549 72.9712 5.24024C71.7294 4.88199 69.3502 9.794 68.4707 12.627C68.3656 12.966 68.2488 13.3197 67.9913 13.564C67.1895 14.3247 66.0383 12.9555 65.4535 12.018C64.869 11.0802 63.6744 9.8655 63.0045 10.3367C64.0232 13.02 66.5565 15.3137 66.2389 18.166C66.051 19.854 64.8795 21.2417 63.7995 22.553C60.0481 27.1093 57.8742 30.8605 54.6485 35.8028C54.2199 36.4593 52.6217 39.1955 53.0203 39.8705C53.2703 40.2938 53.8691 39.7968 54.3102 40.0138C55.5821 40.6395 56.6303 41.708 57.2313 42.9913C61.5117 37.584 63.7067 30.876 66.4844 24.565C67.1307 23.0968 67.8381 21.6068 68.9999 20.5003C69.8875 19.6545 71.007 19.0673 71.826 18.1557C71.9336 18.036 72.0342 17.9062 72.1275 17.77C73.2688 16.8417 74.7373 15.2777 75.6344 14.8227C76.2947 14.4867 77.8131 13.2032 77.0289 13.2555Z" fill="#FFBEB6"/>
<path d="M10.6445 95.1427C11.46 86.3824 12.3343 77.6269 13.2661 68.8782C13.6875 64.9227 14.0861 60.3622 17.0233 57.6779C19.3734 55.5297 24.8018 55.5987 26.5198 56.2317C26.5198 56.2317 27.3853 58.1124 29.7757 58.1299C31.1372 58.1399 32.1761 57.0412 32.3473 55.7094C35.4226 55.2574 37.7824 55.3074 40.1321 57.0749C47.3683 48.5027 51.8193 41.2284 56.1652 32.5146C57.8765 33.5989 59.9917 34.9889 61.7032 36.0734C57.079 48.9804 52.4551 58.4434 46.8701 70.9654C46.2008 72.4664 46.1492 77.1874 45.9273 78.8157C45.7509 80.1089 45.8727 81.4217 45.952 82.7244C46.2118 87.0059 46.0041 91.3152 45.3327 95.5519C44.6679 94.6657 41.9122 94.1562 40.8087 94.2647C39.7054 94.3732 38.6592 94.7932 37.5773 95.0327C33.951 95.8347 30.2194 94.5787 26.5105 94.3889C21.2065 94.1177 15.8797 96.0359 10.6445 95.1427Z" fill="url(#paint0_linear)"/>
<path d="M50.3549 41.5218C49.3647 41.5218 48.4291 40.58 48.1188 40.2333C47.3962 39.4268 46.5832 38.5175 45.5853 38.6618C45.3253 38.6993 45.0816 38.808 44.8236 38.9238C44.5401 39.0508 44.2474 39.1818 43.9248 39.2138C42.8058 39.328 41.9826 38.225 41.5927 37.5585C41.5402 37.469 41.4884 37.3778 41.4356 37.2863C41.0114 36.5455 40.5726 35.7788 39.8206 35.4868C39.072 35.1965 38.2397 35.4665 37.435 35.728C37.197 35.8055 36.9508 35.8858 36.7098 35.9505C35.9154 36.1628 35.0086 36.053 34.4528 35.6763C34.1112 35.4448 33.9073 35.1195 33.8623 34.7355C33.8535 34.6613 33.9068 34.5938 33.9811 34.5848C34.0572 34.5768 34.1228 34.6295 34.1315 34.7035C34.1678 35.0113 34.3269 35.2628 34.6049 35.4515C35.0919 35.7818 35.9284 35.8798 36.6395 35.6883C36.8735 35.626 37.1162 35.5468 37.3509 35.4703C38.2004 35.1935 39.079 34.9075 39.9187 35.234C40.7605 35.5608 41.2231 36.3695 41.6708 37.1513C41.7231 37.2423 41.7746 37.3328 41.8267 37.4215C42.1838 38.032 42.9294 39.038 43.8975 38.9438C44.176 38.9155 44.4365 38.7993 44.7123 38.6755C44.976 38.5573 45.2488 38.4353 45.5463 38.3923C46.6863 38.2278 47.5904 39.236 48.316 40.0465C48.6726 40.4448 49.9037 41.6815 50.9504 41.0923C51.0159 41.055 51.0985 41.0788 51.1353 41.1438C51.1723 41.209 51.1488 41.2915 51.0838 41.3285C50.8433 41.465 50.5976 41.5218 50.3549 41.5218Z" fill="#E94A47"/>
<path d="M21.9551 38.9724C23.0098 36.3654 25.4787 34.3131 28.276 34.0124C31.0733 33.7116 34.0422 35.3301 35.0779 37.9441C31.3588 40.6909 26.0565 41.1059 21.9551 38.9724Z" fill="#E94A47"/>
<path d="M54.3731 94.6403C54.7542 94.474 55.0412 94.2088 55.0452 93.802C54.9196 93.3828 51.3571 93.484 49.5132 93.325C48.3121 93.2215 47.082 93.12 45.9175 93.432C45.3935 93.5723 44.8818 93.7943 44.3613 93.942C44.244 93.9178 44.1304 93.8915 44.018 93.8653C45.5899 93.3585 47.6625 92.5405 47.5359 91.8245C46.9572 91.2325 44.9293 91.91 44.1564 92.2078C42.7656 92.7438 41.6256 92.9673 40.5409 93.276C39.4026 93.2308 38.0747 93.2613 37.015 93.5328C31.3731 94.9778 25.4286 93.8705 19.7117 92.7588C16.9274 92.2175 14.1427 91.676 11.3584 91.1348C11.9001 93.2625 11.5974 95.0515 12.1391 97.1793C15.938 97.089 20.3327 97.5468 23.9875 97.1793C26.712 96.9055 29.4589 95.8715 32.1198 96.5165C33.8056 96.9253 35.403 97.6943 37.1218 97.9243C39.8913 98.2953 42.8057 97.2455 45.4548 98.1343C47.6681 98.8768 49.5708 100.421 51.8443 99.8913C52.7033 99.6908 47.611 97.4265 45.127 96.4033C46.8853 95.4728 48.9867 96.2508 50.9763 96.2633C52.9295 96.2755 55.2016 96.734 56.6571 95.3785C56.9069 94.9265 55.9312 94.7418 54.3731 94.6403Z" fill="#FFBEB6"/>
<path d="M12.0485 90.0384C17.0682 90.9877 20.1182 91.1167 25.1417 91.9232C25.217 93.7547 25.5493 95.5754 26.1254 97.3157C18.1882 97.5287 13.8663 97.5197 5.94321 97.4962C3.09415 97.2249 3.34587 89.3909 3.86334 85.2679C4.39332 81.0452 8.27306 75.6404 9.60625 71.5987C11.3901 66.1892 11.9949 64.9432 15.44 59.6667C16.0653 58.7084 17.2799 56.5502 18.2891 57.0904C17.4481 59.9262 16.8673 63.2767 16.0263 66.1124C14.3838 71.6497 14.1035 70.4407 13.8123 76.2087C13.6764 78.8992 12.9563 84.3839 12.0487 87.0557C12.0167 87.1494 11.9509 90.0202 12.0485 90.0384Z" fill="url(#paint1_linear)"/>
<path d="M68.1771 95.2003C68.1123 95.2003 68.055 95.154 68.0437 95.088C67.6589 92.8823 65.7742 90.9263 63.2424 90.105C60.7241 89.2878 58.0292 89.6 55.9629 89.9628C55.8885 89.9775 55.8187 89.9262 55.8057 89.8527C55.793 89.779 55.8423 89.7088 55.9161 89.6958C58.0135 89.3278 60.7514 89.0123 63.3265 89.8475C65.9528 90.6995 67.9096 92.7383 68.3115 95.0418C68.3242 95.1155 68.2747 95.1858 68.2009 95.1985C68.1926 95.1995 68.1846 95.2003 68.1771 95.2003Z" fill="#23286B"/>
<path d="M42.0084 79.1561C41.9794 79.1561 41.9504 79.1468 41.9253 79.1278C41.0521 78.4513 40.5341 77.3106 40.5401 76.0758C40.5463 74.8408 41.0753 73.7051 41.9554 73.0376C42.1183 72.9138 42.2922 72.8026 42.4606 72.6951C42.7501 72.5098 43.0238 72.3351 43.2488 72.1006C44.2354 71.0721 43.8713 69.5638 43.4857 67.9671C43.1031 66.3813 42.7075 64.7423 43.748 63.5868C44.1206 63.1733 44.618 62.9161 45.0994 62.6668L45.2668 62.5801C46.9163 61.7173 49.0525 59.7118 48.178 57.7211C48.0488 57.4268 47.8629 57.1653 47.666 56.8886C47.4491 56.5831 47.2241 56.2673 47.0852 55.9053C46.6411 54.7498 47.2088 53.4538 47.968 52.6821C48.7878 51.8496 49.9058 51.3608 50.8919 50.9301C50.9612 50.9006 51.0405 50.9318 51.0703 51.0001C51.1003 51.0688 51.0691 51.1486 51.0002 51.1786C50.0364 51.5998 48.9442 52.0768 48.1609 52.8723C47.4623 53.5823 46.9366 54.7651 47.3377 55.8078C47.4648 56.1381 47.6695 56.4263 47.8867 56.7313C48.0829 57.0071 48.2856 57.2923 48.4257 57.6118C49.2747 59.5453 47.5421 61.6958 45.3915 62.8203L45.2226 62.9076C44.7629 63.1451 44.2872 63.3908 43.9482 63.7676C43.0031 64.8173 43.3651 66.3161 43.748 67.9031C44.1336 69.5006 44.5324 71.1523 43.4427 72.2878C43.1952 72.5456 42.895 72.7378 42.6047 72.9236C42.4411 73.0281 42.2717 73.1361 42.1173 73.2536C41.3038 73.8701 40.8148 74.9261 40.8093 76.0771C40.8038 77.2278 41.2823 78.2883 42.0897 78.9133C42.1488 78.9591 42.1598 79.0443 42.114 79.1036C42.089 79.1381 42.0487 79.1561 42.0084 79.1561Z" fill="#23286B"/>
<defs>
<linearGradient id="paint0_linear" x1="15.8626" y1="54.3765" x2="60.7962" y2="78.6314" gradientUnits="userSpaceOnUse">
<stop stop-color="#D6D7D8"/>
<stop offset="1" stop-color="#EEEEEE"/>
</linearGradient>
<linearGradient id="paint1_linear" x1="9.39151" y1="73.5702" x2="21.4442" y2="92.666" gradientUnits="userSpaceOnUse">
<stop stop-color="#D6D7D8"/>
<stop offset="1" stop-color="#EEEEEE"/>
</linearGradient>
</defs>
</svg>
