<svg width="75" height="75" viewBox="0 0 75 75" fill="none" xmlns="http://www.w3.org/2000/svg">
<g clip-path="url(#clip0)">
<path d="M62.4827 41.592L51.2841 24.0368C52.8708 23.203 53.9562 21.5391 53.9562 19.6256C53.9562 17.5312 52.656 15.7358 50.8209 15.0008L54.2134 3.14016C54.3598 2.62846 54.2171 2.0778 53.8409 1.70145C51.5842 -0.555128 47.9124 -0.555128 45.6557 1.70145C45.1159 2.24128 44.3982 2.53852 43.6348 2.53852C42.8715 2.53852 42.1538 2.24128 41.6106 1.69794L41.6034 1.69076C39.3548 -0.558204 35.6893 -0.564504 33.4316 1.67743L33.3895 1.71933C32.2752 2.82579 30.4653 2.82257 29.355 1.71215L29.3443 1.70145C27.0876 -0.555128 23.4158 -0.555128 21.1591 1.70145C20.7826 2.07809 20.6401 2.6292 20.7867 3.14119L24.1866 14.9981C22.3475 15.7311 21.0438 17.5284 21.0438 19.6258C21.0438 21.5393 22.1291 23.2031 23.7159 24.037L12.5172 41.592C8.1848 48.3834 7.91027 56.6553 11.7828 63.7191C15.6554 70.7828 22.7767 75.0001 30.8325 75.0001H44.1672C52.2229 75.0001 59.3442 70.7828 63.2169 63.7191C67.0894 56.6553 66.8151 48.3834 62.4827 41.592ZM27.2724 3.77316L27.2831 3.78386C29.5321 6.03267 33.1973 6.03883 35.455 3.79719L35.497 3.75529C36.6112 2.64883 38.4212 2.65205 39.5349 3.76584L39.5421 3.77302C41.7988 6.0296 45.4706 6.0296 47.7273 3.77302C48.6455 2.8548 50.0382 2.69321 51.1234 3.28827L47.8754 14.6449H27.1334L23.8769 3.28812C24.9621 2.69321 26.3544 2.85509 27.2724 3.77316ZM60.6478 62.3107C57.2975 68.4218 51.1366 72.0704 44.1673 72.0704H30.8327C23.8634 72.0704 17.7025 68.422 14.3522 62.3107C11.0019 56.1996 11.2393 49.0434 14.9874 43.1677L26.8277 24.6064H30.9078C31.7169 24.6064 32.3727 23.9506 32.3727 23.1415C32.3727 22.3324 31.7169 21.6765 30.9078 21.6765H26.0246C24.8937 21.6765 23.9737 20.7566 23.9737 19.6256C23.9737 18.4947 24.8937 17.5747 26.0246 17.5747H26.0294H48.9753C50.1062 17.5747 51.0262 18.4947 51.0262 19.6256C51.0262 20.7566 50.1062 21.6765 48.9753 21.6765H44.0922C43.2831 21.6765 42.6273 22.3324 42.6273 23.1415C42.6273 23.9506 43.2831 24.6064 44.0922 24.6064H48.1722L60.0126 43.1677C63.7607 49.0432 63.9981 56.1994 60.6478 62.3107Z" fill="white"/>
<path d="M40.0823 47.8419C39.7147 47.712 39.3395 47.5768 38.9645 47.4363V40.7969C39.9577 41.0892 40.6211 41.5631 40.6492 41.5836C41.2936 42.0663 42.2079 41.9383 42.6948 41.2956C43.1834 40.6507 43.0567 39.7319 42.4118 39.2432C42.3258 39.178 40.9637 38.1669 38.9645 37.7842V36.3263C38.9645 35.5172 38.3087 34.8613 37.4996 34.8613C36.6905 34.8613 36.0347 35.5172 36.0347 36.3263V37.7736C35.7865 37.8212 35.535 37.8814 35.2801 37.958C33.2183 38.5776 31.6772 40.3408 31.2581 42.5595C30.8756 44.5855 31.5247 46.5396 32.9521 47.6591C33.7268 48.2666 34.6947 48.8214 36.0347 49.4106V57.9066C34.881 57.8337 34.1093 57.5711 32.8228 56.7295C32.1459 56.2864 31.2377 56.4764 30.7949 57.1535C30.3519 57.8306 30.5417 58.7384 31.2188 59.1814C33.0948 60.4086 34.3651 60.7562 36.0347 60.8384V62.3533C36.0347 63.1624 36.6905 63.8182 37.4996 63.8182C38.3087 63.8182 38.9645 63.1624 38.9645 62.3533V60.6862C42.1015 59.9991 43.9362 57.3814 44.3479 54.9327C44.8859 51.7312 43.2117 48.948 40.0823 47.8419ZM34.7603 45.3536C34.1972 44.9119 33.9584 44.0495 34.1371 43.103C34.3015 42.2326 34.8872 41.1829 36.0347 40.7946V46.1596C35.553 45.9028 35.1183 45.6344 34.7603 45.3536ZM41.4584 54.4467C41.2475 55.7015 40.4006 57.0322 38.9644 57.6202V50.5535C39.0121 50.5705 39.0574 50.5871 39.1057 50.6042C41.7322 51.5326 41.5706 53.7801 41.4584 54.4467Z" fill="white"/>
<path d="M37.5001 24.6061C37.8854 24.6061 38.2633 24.4494 38.5358 24.1769C38.8083 23.9044 38.965 23.5265 38.965 23.1412C38.965 22.7559 38.8083 22.378 38.5358 22.1055C38.2633 21.833 37.8854 21.6763 37.5001 21.6763C37.1148 21.6763 36.7369 21.833 36.4644 22.1055C36.1919 22.378 36.0352 22.7559 36.0352 23.1412C36.0352 23.5265 36.1919 23.9044 36.4644 24.1769C36.7369 24.4494 37.1147 24.6061 37.5001 24.6061Z" fill="white"/>
</g>
<defs>
<clipPath id="clip0">
<rect width="75" height="75" fill="white"/>
</clipPath>
</defs>
</svg>
