<svg width="20" height="20" viewBox="0 0 20 20" fill="none" xmlns="http://www.w3.org/2000/svg">
<path d="M16.5069 2.61955C16.5141 1.96682 16.2606 1.3382 15.8027 0.87306C15.337 0.412499 14.7111 0.15003 14.0562 0.140648C13.4126 0.137844 12.7944 0.391201 12.3379 0.844861L15.8027 4.33783C16.2674 3.88881 16.5228 3.26558 16.5069 2.61955Z" fill="#FB9A00"/>
<path d="M15.0138 5.12685L11.5491 1.66211L3.52096 9.6902L6.98571 13.1549L15.0138 5.12685Z" fill="#FB9A00"/>
<path d="M3.07025 10.8164L2.28149 14.3939L5.85896 13.6051L3.07025 10.8164Z" fill="#FB9A00"/>
<path d="M19.4366 18.7324H0.563381C0.252225 18.7324 0 18.9846 0 19.2958C0 19.607 0.252225 19.8592 0.563381 19.8592H19.4366C19.7478 19.8592 20 19.607 20 19.2958C20 18.9846 19.7478 18.7324 19.4366 18.7324Z" fill="#FB9A00"/>
</svg>
