<svg width="106" height="100" viewBox="0 0 106 100" fill="none" xmlns="http://www.w3.org/2000/svg">
<path d="M55.6168 31.6672L56.0835 13.8839C56.0835 13.7339 56.2335 13.6339 56.3668 13.6839L60.5835 15.0839C60.7168 15.1339 60.8001 15.2672 60.7835 15.4006L57.6668 37.2006C57.6501 37.3506 57.4668 37.4006 57.3668 37.3006L44.9835 25.4339C44.9002 25.3506 44.8502 25.2172 44.8835 25.1006L46.0002 20.5506C46.0168 20.4506 46.1335 20.4339 46.2002 20.5006L55.6168 31.6672Z" fill="#FB9A00"/>
<path d="M45.9503 55.0001C46.5118 55.0001 46.9669 54.545 46.9669 53.9835C46.9669 53.422 46.5118 52.9668 45.9503 52.9668C45.3888 52.9668 44.9336 53.422 44.9336 53.9835C44.9336 54.545 45.3888 55.0001 45.9503 55.0001Z" fill="#FB9A00"/>
<path d="M49.5999 55.1168C49.9221 55.1168 50.1833 54.8557 50.1833 54.5335C50.1833 54.2114 49.9221 53.9502 49.5999 53.9502C49.2778 53.9502 49.0166 54.2114 49.0166 54.5335C49.0166 54.8557 49.2778 55.1168 49.5999 55.1168Z" fill="#FB9A00"/>
<path d="M51.9331 60.0331C52.5498 60.0331 53.0497 59.5332 53.0497 58.9165C53.0497 58.2998 52.5498 57.7998 51.9331 57.7998C51.3164 57.7998 50.8164 58.2998 50.8164 58.9165C50.8164 59.5332 51.3164 60.0331 51.9331 60.0331Z" fill="#FB9A00"/>
<path d="M45.8661 35.7497C46.538 35.7497 47.0827 35.205 47.0827 34.5331C47.0827 33.8611 46.538 33.3164 45.8661 33.3164C45.1941 33.3164 44.6494 33.8611 44.6494 34.5331C44.6494 35.205 45.1941 35.7497 45.8661 35.7497Z" fill="#FB9A00"/>
<path d="M76.0499 44.2004C76.4826 44.2004 76.8333 43.8497 76.8333 43.4171C76.8333 42.9845 76.4826 42.6338 76.0499 42.6338C75.6173 42.6338 75.2666 42.9845 75.2666 43.4171C75.2666 43.8497 75.6173 44.2004 76.0499 44.2004Z" fill="#FB9A00"/>
<path d="M80.5503 43.1504C81.1763 43.1504 81.6837 42.643 81.6837 42.0171C81.6837 41.3912 81.1763 40.8838 80.5503 40.8838C79.9244 40.8838 79.417 41.3912 79.417 42.0171C79.417 42.643 79.9244 43.1504 80.5503 43.1504Z" fill="#FB9A00"/>
<path d="M79.0666 60.3665C79.7753 60.3665 80.3499 59.7919 80.3499 59.0831C80.3499 58.3744 79.7753 57.7998 79.0666 57.7998C78.3578 57.7998 77.7832 58.3744 77.7832 59.0831C77.7832 59.7919 78.3578 60.3665 79.0666 60.3665Z" fill="#FB9A00"/>
<path d="M71.0669 53.0503C70.6335 53.0503 70.4669 52.7669 70.4502 52.5003C70.4502 52.2503 70.7169 51.9503 71.0502 51.9336L76.8169 52.1169C77.1502 52.1169 77.4335 52.3169 77.4335 52.5669C77.4335 52.8169 77.1669 53.0336 76.8335 53.0336L71.0669 53.0503C71.0835 53.0503 71.0669 53.0503 71.0669 53.0503Z" fill="#FB9A00"/>
<path d="M73.9338 56.3162H73.9171C73.5837 56.2996 73.3171 56.0162 73.3337 55.6829L73.7337 48.3829C73.7504 48.0496 73.9171 47.7829 74.2504 47.7996C74.5838 47.8162 74.8504 48.0996 74.8338 48.4329L74.5338 55.7329C74.5338 56.0496 74.2504 56.3162 73.9338 56.3162Z" fill="#FB9A00"/>
<path d="M51.8833 49.4832C51.5499 49.4832 51.2666 49.2165 51.2666 48.8665L51.3833 40.1665C51.3833 39.8331 51.5333 39.5498 51.8833 39.5498C52.2333 39.5498 52.4999 39.8165 52.4999 40.1665L52.6166 48.8665C52.5999 49.2165 52.4333 49.4832 51.8833 49.4832Z" fill="#FB9A00"/>
<path d="M48.3994 44.1169C48.3994 43.7669 48.6494 43.6003 48.9994 43.6003L54.6661 43.4336H54.6828C55.0161 43.4336 55.2828 43.7003 55.2994 44.0336C55.3161 44.3669 55.0494 44.6503 54.6994 44.6669L49.1661 44.6003C49.1494 44.5836 48.3994 44.6503 48.3994 44.1169Z" fill="#FB9A00"/>
<path d="M38.9836 41.733C38.9669 41.733 38.9669 41.733 38.9503 41.733C38.617 41.7163 38.3503 41.433 38.367 41.083L38.9003 33.4997C38.9169 33.1664 39.0836 32.6664 39.4336 32.683C39.7669 32.6997 40.0336 32.983 40.0169 33.333L39.8336 41.1497C39.7669 41.733 39.3169 41.733 38.9836 41.733Z" fill="#FB9A00"/>
<path d="M42.0828 38.1669L36.0161 38.0503C35.6827 38.0503 35.3994 37.9003 35.3994 37.5503C35.3994 37.2003 35.6661 37.0503 36.0161 37.0503L42.0828 36.9336C42.4161 36.9336 42.6994 37.2003 42.6994 37.5503C42.6994 37.9003 42.4161 38.1669 42.0828 38.1669Z" fill="#FB9A00"/>
<path d="M14.5503 69.583C14.5503 69.583 11.3503 70.4497 9.88367 71.0997C8.417 71.733 5.217 74.0163 7.967 77.0997C10.717 80.183 21.7337 83.3497 24.1837 84.2663C26.6337 85.1997 43.717 91.033 48.0337 96.0997L48.967 96.9663C48.967 96.9663 57.8837 88.283 64.4337 85.0663C70.9837 81.8497 73.3003 81.0997 78.9003 80.0997L62.217 70.183L14.5503 69.583Z" fill="#FFE7E6"/>
<path d="M14.0176 55.3831C15.2509 56.4664 14.7342 58.4831 14.3009 59.5997C16.2009 58.4997 21.8009 55.5331 30.0009 53.5164C36.6009 51.8997 42.0009 51.1497 45.1676 50.7664C46.0176 49.4164 45.9509 45.1831 42.5509 46.0664C37.8009 47.2831 14.9009 53.1831 12.4009 54.2997C12.1842 54.3997 11.9676 54.4997 11.7676 54.5997C12.5676 54.5331 13.3342 54.7831 14.0176 55.3831Z" fill="#32C9CD"/>
<path d="M41.5508 56.9328C38.7841 54.5661 38.4508 52.8661 38.4008 52.3828C35.5008 52.7661 33.1341 53.2995 30.1174 54.0328C20.0174 56.4995 14.0508 60.6662 13.9841 60.6995C13.4675 60.9828 13.2341 60.4495 13.4841 60.1328C13.5008 60.0995 15.0841 57.0162 13.6674 55.7828C13.0841 55.2662 12.4341 55.0495 11.7508 55.1328C10.8841 55.2328 10.0675 55.7828 9.48412 56.3161C8.40079 57.5995 7.78412 59.5495 8.18412 62.6995C8.81745 67.6828 23.0508 77.1161 24.5674 78.1662C26.0841 79.2162 48.9508 96.9995 48.9508 96.9995C58.4008 84.4662 79.4008 76.0661 79.4008 76.0661C79.4008 76.0661 47.5008 61.9995 41.5508 56.9328Z" fill="#32C9CD"/>
<path d="M29.5336 69.5001C29.467 69.5001 29.4003 69.4834 29.3503 69.4501L22.6503 64.9001C22.5336 64.8167 22.4836 64.6668 22.517 64.5334C22.567 64.4001 22.6836 64.3001 22.8336 64.3168L29.3836 64.4834L28.467 59.5668C28.4503 59.4334 28.5003 59.3168 28.6003 59.2334C28.7003 59.1668 28.8503 59.1668 28.9503 59.2334L33.3503 62.0834L34.4003 57.8501C34.4336 57.7168 34.5503 57.6168 34.6836 57.6168C34.817 57.6001 34.9503 57.6668 35.0003 57.8001C36.0836 60.0001 37.2836 61.3168 38.1003 62.0334C38.9836 62.8168 39.617 63.0668 39.617 63.0834C39.7503 63.1334 39.817 63.2668 39.817 63.4001C39.817 63.5334 39.717 63.6501 39.5836 63.6834C34.1836 65.2168 29.7836 69.4001 29.7503 69.4334C29.7003 69.4667 29.617 69.5001 29.5336 69.5001ZM23.917 64.9834L29.517 68.7834C30.3836 67.9834 34.067 64.8001 38.7003 63.2668C37.8336 62.7001 36.267 61.4168 34.8336 58.8168L33.867 62.6668C33.8336 62.7668 33.767 62.8501 33.667 62.8834C33.567 62.9168 33.467 62.9168 33.367 62.8501L29.2336 60.1668L30.0836 64.7501C30.1003 64.8501 30.067 64.9501 30.017 65.0168C29.9503 65.0834 29.867 65.1334 29.767 65.1334L23.917 64.9834Z" fill="#FB9A00"/>
<path d="M27.7329 58.2665C28.2115 58.2665 28.5995 57.8785 28.5995 57.3999C28.5995 56.9212 28.2115 56.5332 27.7329 56.5332C27.2542 56.5332 26.8662 56.9212 26.8662 57.3999C26.8662 57.8785 27.2542 58.2665 27.7329 58.2665Z" fill="#FB9A00"/>
<path d="M34.5499 56.2335C34.9733 56.2335 35.3166 55.8903 35.3166 55.4669C35.3166 55.0434 34.9733 54.7002 34.5499 54.7002C34.1265 54.7002 33.7832 55.0434 33.7832 55.4669C33.7832 55.8903 34.1265 56.2335 34.5499 56.2335Z" fill="#FB9A00"/>
<path d="M20.9346 64.2097C21.4109 64.1626 21.7588 63.7382 21.7116 63.2619C21.6644 62.7856 21.2401 62.4378 20.7638 62.4849C20.2875 62.5321 19.9396 62.9564 19.9868 63.4327C20.0339 63.909 20.4583 64.2569 20.9346 64.2097Z" fill="#FB9A00"/>
<path d="M65.3836 79.4167L63.6336 79.1167C61.4503 78.7501 57.8336 78.8834 57.8003 78.8834C57.267 78.9001 56.817 78.4834 56.8003 77.9501C56.7836 77.4167 57.2003 76.9667 57.7336 76.9501C57.8503 76.9501 60.367 77.1001 62.4836 77.2501C61.9003 75.9001 60.8003 73.6834 60.1503 72.2667C59.9336 71.7834 60.1503 71.2167 60.6336 71.0001C61.117 70.7834 61.6836 71.0001 61.9003 71.4834C62.967 73.8501 64.6503 77.7334 64.667 77.7834L65.3836 79.4167Z" fill="white"/>
<path d="M41.4999 80.6669C41.3832 80.6669 41.2499 80.6169 41.1666 80.5169C40.9832 80.3336 40.9999 80.0336 41.1832 79.8502C45.2832 76.0169 50.2666 72.7336 53.8999 70.3502C54.2666 70.1169 54.6166 69.8836 54.9499 69.6502C55.1666 69.5002 55.4499 69.5669 55.5999 69.7836C55.7499 70.0002 55.6832 70.2836 55.4666 70.4336C55.1332 70.6502 54.7832 70.8836 54.4166 71.1336C50.7999 73.5169 45.8499 76.7669 41.8166 80.5502C41.7166 80.6335 41.6166 80.6669 41.4999 80.6669Z" fill="white"/>
<path d="M38.167 78.1664C38.0336 78.1664 37.9169 78.1164 37.8169 78.0164C37.6336 77.833 37.6503 77.533 37.8336 77.3497C41.017 74.3997 45.1003 71.6497 51.0836 67.8997C51.3003 67.7664 51.5836 67.833 51.7336 68.0497C51.867 68.2664 51.8003 68.5497 51.5836 68.6997C45.6503 72.4164 41.6003 75.133 38.467 78.033C38.4003 78.1164 38.2836 78.1664 38.167 78.1664Z" fill="white"/>
<path d="M35.0175 75.7659C34.9008 75.7659 34.7675 75.7159 34.6841 75.6159C34.5008 75.4326 34.5175 75.1326 34.7008 74.9493C34.7508 74.8993 40.0341 69.8326 47.8175 65.8326C48.0508 65.716 48.3341 65.7993 48.4508 66.0326C48.5675 66.266 48.4841 66.5493 48.2508 66.666C40.5841 70.616 35.4008 75.5826 35.3508 75.6326C35.2508 75.7326 35.1341 75.7659 35.0175 75.7659Z" fill="white"/>
<path d="M54.917 63.4004C54.917 63.4004 70.4837 63.6337 71.767 63.6337C73.0503 63.6337 78.0003 63.867 78.8837 63.867C79.767 63.867 80.117 63.3504 79.417 63.2337C78.717 63.117 74.2837 62.6504 71.417 62.5837C68.5503 62.517 56.317 62.517 54.917 62.8837V63.4004Z" fill="#FFE7E6"/>
<path d="M64.4668 55.6334L64.4168 55.0001C64.3001 54.2334 63.4168 54.3501 63.4168 54.3501C63.4168 54.3501 57.4668 54.5168 56.6001 54.5834C55.7335 54.6501 55.7335 55.5168 55.7335 55.5168L55.7168 55.6668L64.4668 55.6334Z" fill="#324A58"/>
<path d="M65.2005 61.7333L64.5671 56.25L55.6171 56.3833L54.8838 61.9333L65.2005 61.7333Z" fill="#324A58"/>
<path d="M54.8003 62.5663L54.6836 63.4663L65.4003 63.5497L65.267 62.333L54.8003 62.5663Z" fill="#324A58"/>
<path d="M57.417 54.1334L62.6004 53.9501C62.6004 53.9501 61.617 53.0168 61.5503 51.9668H58.6337C58.6503 51.9668 58.5337 53.4334 57.417 54.1334Z" fill="#324A58"/>
<path d="M58.6505 51.3831L61.6339 51.4498C61.6339 51.4498 63.1505 50.6331 62.3339 50.1164C61.5172 49.5831 59.4172 49.6497 58.6672 49.9997C57.8839 50.3331 57.8339 50.9831 58.6505 51.3831Z" fill="#324A58"/>
<path d="M80.2681 18.3997C80.3348 18.383 80.3848 18.3663 80.4514 18.333C80.6681 18.2497 80.8681 18.1497 81.0348 18.0163C81.2014 17.883 81.3514 17.7163 81.4181 17.5163C81.4514 17.4163 81.4514 17.3163 81.4347 17.233C81.4181 17.1497 81.3681 17.0663 81.2847 16.9997C81.1348 16.883 80.9347 16.8497 80.7348 16.8663C80.5348 16.883 80.3348 16.9663 80.1348 17.0497C79.9348 17.1497 79.7514 17.2497 79.5848 17.383C79.4181 17.5163 79.2681 17.6663 79.1348 17.833C79.3181 17.8997 79.5014 17.983 79.6848 18.0663C79.8848 18.1663 80.0681 18.283 80.2681 18.3997Z" fill="#FB9A00"/>
<path d="M78.6349 19.0001C78.5683 19.4168 78.5849 19.8501 78.7349 20.2501C78.9849 20.9168 80.3849 22.3168 82.2016 22.1168C82.3682 22.1001 82.5182 22.0335 82.6682 21.9835C82.6182 21.9001 82.5516 21.8168 82.5016 21.7335C82.1682 21.2335 81.8182 20.7335 81.4349 20.3001C81.0516 19.8668 80.6182 19.4668 80.1349 19.1501C80.0682 19.1168 80.0182 19.0668 79.9516 19.0335L79.7682 18.9168C79.6349 18.8501 79.5182 18.7835 79.3849 18.7168C79.1849 18.6168 78.9849 18.5335 78.7849 18.4668C78.7183 18.6335 78.6683 18.8168 78.6349 19.0001Z" fill="#FB9A00"/>
<path d="M67.2174 26.5994C68.0174 25.6494 68.8674 24.7494 69.8174 23.9328C70.0508 23.7328 70.3008 23.5328 70.5341 23.3328C70.7841 23.1328 71.0341 22.9494 71.2841 22.7828C71.8008 22.4161 72.3508 22.0994 72.9174 21.8161C73.4841 21.5494 74.0841 21.3161 74.7174 21.1494L74.9508 21.0994L75.0674 21.0661L75.1841 21.0494L75.4174 20.9994L75.6508 20.9661L75.7674 20.9494L75.8841 20.9328L76.1174 20.9161C76.2841 20.9161 76.4341 20.8994 76.6008 20.8994C77.2674 20.8994 77.9341 20.9828 78.5841 21.1494C78.5674 21.1161 78.5508 21.0828 78.5174 21.0494C78.4008 20.8328 78.3174 20.5994 78.2508 20.3661C78.1341 19.8994 78.1008 19.3994 78.2008 18.9161C78.2341 18.7161 78.3008 18.5161 78.3841 18.3328C77.3341 18.0328 76.1841 17.9994 75.0674 18.1161C74.4841 18.1828 73.9174 18.3161 73.3508 18.4994C72.7841 18.6828 72.2341 18.9161 71.6841 19.1661C71.1341 19.4328 70.6174 19.7161 70.1008 20.0328C69.9841 20.0994 69.8674 20.1828 69.7341 20.2494C68.4508 22.8328 67.3841 25.3161 66.5508 27.3994C66.7841 27.1328 67.0008 26.8661 67.2174 26.5994Z" fill="#FB9A00"/>
<path d="M89.3348 25.0663C89.6014 25.0163 89.8681 24.9329 90.1181 24.8163C90.6348 24.5996 91.1181 24.2996 91.5681 23.9496C92.0181 23.5996 92.4348 23.1996 92.8514 22.7829L93.0014 22.6163C93.0514 22.5663 93.1014 22.5163 93.1348 22.4663C93.2181 22.3663 93.3181 22.2496 93.3848 22.1496C93.5514 21.9163 93.7014 21.6829 93.8348 21.4329C94.1181 20.9329 94.3514 20.3996 94.5514 19.8663C94.7514 19.3163 94.9181 18.7663 95.0514 18.1996C95.3181 17.0663 95.4681 15.8996 95.4848 14.7496C95.5181 13.5829 95.4181 12.4163 95.1514 11.2829C94.9014 10.1496 94.4848 9.04961 93.9181 8.04961C93.6348 7.54961 93.2848 7.08294 92.9181 6.63294C92.5348 6.19961 92.1348 5.78294 91.6848 5.41628C91.2348 5.04961 90.7514 4.71628 90.2514 4.43294C89.7514 4.14961 89.2181 3.89961 88.6681 3.68294C88.0681 3.44961 87.4514 3.24961 86.8348 3.09961C85.9014 3.28294 84.8848 3.59961 83.8014 4.08294C82.6014 4.59961 81.4681 5.28294 80.3848 6.09961C81.0181 5.88294 81.6348 5.71628 82.2514 5.59961C84.2014 5.19961 86.0181 5.24961 87.9348 5.76628C89.5514 6.19961 91.1181 7.31628 92.2181 8.83294C93.4514 10.5496 94.0681 12.6329 93.9848 14.8829C93.8848 17.6329 92.9848 19.4996 92.2348 20.5663C91.3514 21.8663 90.1681 22.7496 89.0848 22.9496C88.7848 22.9996 88.5014 23.0329 88.2514 23.0329C87.7014 23.0329 87.2681 22.9163 86.9848 22.6496C86.5681 22.2496 85.9848 20.6996 87.9181 20.1496C89.0014 19.8329 89.5181 20.1496 89.7848 20.6829C89.8348 20.7996 89.8514 20.9496 89.8181 21.0996C89.8848 21.0329 89.9514 20.9496 90.0014 20.8663C90.1681 20.6329 90.3014 20.3829 90.4014 20.1163C90.4848 19.8496 90.5348 19.5663 90.5181 19.2829C90.5014 19.1496 90.4848 19.0163 90.4348 18.8829C90.4014 18.7496 90.3348 18.6163 90.2848 18.4996C90.1681 18.2496 89.9848 18.0329 89.7681 17.8829C89.5514 17.7329 89.3014 17.6329 89.0181 17.5829C88.7514 17.5329 88.4681 17.5496 88.1848 17.5829C88.0514 17.5996 87.9014 17.6329 87.7681 17.6663C87.6181 18.0996 87.4514 18.5163 87.2348 18.9329C86.8014 19.7663 86.2181 20.5329 85.4848 21.1663C85.2181 21.3996 84.9348 21.5996 84.6514 21.7829C84.6848 21.9329 84.7348 22.0829 84.8014 22.2329C85.0014 22.7496 85.3181 23.2163 85.7014 23.6163C85.9014 23.8163 86.1014 24.0163 86.3181 24.1996C86.5348 24.3829 86.7514 24.5496 87.0014 24.6829C87.4681 24.9663 88.0014 25.1163 88.5348 25.1329C88.7848 25.1496 89.0681 25.1163 89.3348 25.0663Z" fill="#FB9A00"/>
<path d="M83.951 27.6166C84.001 27.3166 84.0343 27.0333 84.051 26.7333C84.0677 26.4333 84.051 26.1333 84.0343 25.8499C84.001 25.5499 83.9677 25.2666 83.901 24.9666C83.8343 24.6833 83.7677 24.3833 83.6677 24.0999C83.5677 23.8166 83.4677 23.5499 83.351 23.2666C83.2343 23.0166 83.1177 22.7666 82.9843 22.5166C82.7677 22.5833 82.5343 22.6499 82.301 22.6999C82.0676 22.7499 81.8176 22.7666 81.5843 22.7833C81.551 22.7833 81.5343 22.7833 81.501 22.7833C81.601 22.8833 81.7176 22.9999 81.8176 23.1166C81.8676 23.1833 81.9176 23.2333 81.9676 23.2999C82.0176 23.3666 82.0676 23.4333 82.1177 23.4999C82.1677 23.5666 82.201 23.6333 82.251 23.6999L82.3843 23.8999C82.551 24.1666 82.701 24.4499 82.8343 24.7499C83.101 25.3333 83.251 25.9666 83.3177 26.5999C83.3677 27.2333 83.3343 27.8666 83.251 28.4833C83.2177 28.7666 83.1677 29.0499 83.1177 29.3166C83.201 29.2833 83.301 29.2499 83.401 29.2166C83.5343 28.9833 83.651 28.7333 83.7343 28.4833C83.8177 28.1999 83.901 27.9166 83.951 27.6166Z" fill="#FB9A00"/>
<path d="M82.8673 26.6505C82.784 26.0672 82.6006 25.5005 82.3506 24.9672C82.2173 24.7005 82.0673 24.4505 81.9006 24.2005L81.7673 24.0172C81.7173 23.9505 81.684 23.9005 81.634 23.8338C81.584 23.7672 81.5506 23.7172 81.5006 23.6672C81.4506 23.6172 81.4006 23.5505 81.3673 23.5005C81.1673 23.2838 80.9506 23.1005 80.734 22.9172C80.534 22.7505 80.3173 22.6172 80.084 22.4838C79.934 22.4172 79.8006 22.3505 79.6673 22.2505C78.734 21.8005 77.684 21.5672 76.634 21.5838C76.0506 21.5838 75.4673 21.6672 74.884 21.8005C74.3173 21.9338 73.7507 22.1505 73.2007 22.3838C72.1173 22.8838 71.1173 23.5672 70.1673 24.3172C69.7006 24.7005 69.234 25.1005 68.784 25.5172C68.334 25.9338 67.9006 26.3672 67.4673 26.8005C67.0673 27.2172 66.6673 27.6505 66.284 28.0838C65.8007 29.2838 65.4173 30.3172 65.084 31.1172C65.5173 30.6505 65.984 30.2172 66.484 29.8005C67.384 29.0505 68.3673 28.4005 69.4006 27.8672C69.6506 27.7172 69.9173 27.6005 70.184 27.4838C70.3173 27.4172 70.4506 27.3672 70.584 27.3005C70.7173 27.2505 70.8506 27.1838 70.984 27.1338L71.4006 26.9838C71.4673 26.9505 71.534 26.9338 71.6006 26.9005L71.8006 26.8338L72.2173 26.7005C72.3506 26.6505 72.5006 26.6172 72.634 26.5672C73.2006 26.4005 73.7673 26.2672 74.3506 26.1672C74.634 26.1172 74.934 26.0672 75.234 26.0505C75.534 26.0172 75.8173 26.0005 76.1173 25.9838C76.7173 25.9672 77.3006 26.0005 77.9006 26.1005C78.484 26.2005 79.0673 26.3672 79.6173 26.6172C80.1673 26.8672 80.6673 27.2172 81.1006 27.6338C81.534 28.0505 81.884 28.5505 82.1506 29.0838C82.2173 29.2172 82.284 29.3672 82.334 29.5172C82.4506 29.5005 82.6173 29.4505 82.8006 29.4005C82.834 29.0838 82.8673 28.7672 82.9006 28.4505C82.9506 27.8505 82.9506 27.2505 82.8673 26.6505Z" fill="#FB9A00"/>
<path d="M84.8515 18.8166C85.0515 18.5666 85.2848 18.3499 85.5348 18.1666C85.6015 18.1166 85.6681 18.0666 85.7348 18.0333C85.8015 17.9833 85.8681 17.9499 85.9348 17.9166C86.0681 17.8333 86.2181 17.7666 86.3515 17.7166C86.6015 17.5999 86.8515 17.5166 87.1015 17.4333C87.2348 17.0166 87.3681 16.5999 87.4015 16.1666C87.4848 15.0999 87.1848 14.2166 87.0015 13.7999C86.6348 12.9666 86.0515 12.2166 85.3181 11.6999C84.5848 11.1833 83.7015 10.8833 82.8015 10.7999C82.5848 10.7833 82.3515 10.7666 82.1181 10.7666C81.8848 10.7666 81.6681 10.7666 81.4348 10.7999C80.9848 10.8333 80.5348 10.9166 80.0848 11.0166C79.6348 11.1166 79.2015 11.2333 78.7514 11.3833C78.3181 11.5333 77.8848 11.6999 77.4681 11.8833C77.0514 12.0666 76.6348 12.2666 76.2348 12.4999C75.8348 12.7166 75.4348 12.9666 75.0348 13.2166C74.6514 13.4666 74.2681 13.7333 73.8848 13.9999C73.5014 14.2666 73.1348 14.5666 72.7848 14.8499C72.7681 14.8499 72.7681 14.8666 72.7514 14.8666C71.8014 16.3833 70.9181 17.9499 70.1348 19.4833C70.5514 19.1999 70.9848 18.9499 71.4348 18.7166C71.9848 18.4166 72.5514 18.1666 73.1514 17.9499C73.7348 17.7333 74.3514 17.5833 74.9848 17.4999L75.2181 17.4666C75.3014 17.4499 75.3681 17.4499 75.4514 17.4499L75.6848 17.4333L75.9181 17.4166C76.2348 17.3999 76.5514 17.4166 76.8681 17.4166C76.9514 17.4166 77.0348 17.4333 77.1014 17.4333C77.1848 17.4333 77.2681 17.4499 77.3348 17.4499C77.4848 17.4666 77.6514 17.4833 77.8014 17.5166C78.1181 17.5666 78.4181 17.6499 78.7181 17.7333C78.7514 17.6999 78.7681 17.6666 78.8014 17.6333C79.1181 17.2666 79.5181 16.9833 79.9515 16.7999C80.1681 16.6999 80.4015 16.6333 80.6515 16.6166C80.7681 16.6166 80.9015 16.6166 81.0348 16.6499C81.1515 16.6833 81.2848 16.7499 81.3848 16.8333C81.4848 16.9333 81.5515 17.0499 81.5681 17.1833C81.5848 17.3166 81.5681 17.4499 81.5181 17.5666C81.4181 17.7999 81.2515 17.9833 81.0515 18.0999C80.8515 18.2333 80.6348 18.3166 80.4181 18.3833C80.3681 18.3999 80.3181 18.4166 80.2681 18.4166C80.3348 18.4666 80.4015 18.4999 80.4681 18.5499C81.0015 18.9166 81.4681 19.3666 81.8848 19.8499C82.3015 20.3333 82.6515 20.8499 82.9681 21.3833C83.0515 21.4999 83.1181 21.6333 83.2015 21.7666C83.4681 21.6499 83.7181 21.5333 83.9681 21.3833C83.9515 21.0999 83.9681 20.7999 84.0181 20.5166C84.1515 19.8999 84.4515 19.2999 84.8515 18.8166Z" fill="#FB9A00"/>
<path d="M86.6675 25.2331C86.4008 25.0665 86.1342 24.8831 85.9008 24.6665C85.6675 24.4665 85.4508 24.2498 85.2342 24.0165C84.8175 23.5498 84.4508 23.0165 84.2342 22.4165C84.1842 22.2998 84.1508 22.1665 84.1175 22.0498C83.9342 22.1498 83.7342 22.2331 83.5342 22.3165C83.6508 22.5665 83.7675 22.7998 83.8675 23.0498C84.3342 24.2165 84.5342 25.4998 84.4008 26.7498C84.3175 27.3665 84.1675 27.9831 83.9008 28.5498C83.8008 28.7498 83.7008 28.9498 83.5842 29.1331C84.7675 28.6498 86.3175 27.5498 86.6675 25.2331Z" fill="#FB9A00"/>
<path d="M82.4178 32.0997L82.4511 31.9331C82.4844 31.3497 82.4011 30.6831 82.2011 29.9331L82.1511 29.8164L82.1178 29.7164L82.0678 29.6164L81.9678 29.4331C81.9344 29.3664 81.9011 29.3164 81.8678 29.2497C81.5844 28.7664 81.2344 28.3331 80.8178 27.9831C80.7178 27.8997 80.6011 27.7997 80.5011 27.7331L80.3344 27.6164C80.2844 27.5831 80.2178 27.5497 80.1511 27.5164C80.0844 27.4831 80.0344 27.4497 79.9678 27.4164L79.7844 27.3164C79.6678 27.2497 79.5344 27.1997 79.4178 27.1497C78.9178 26.9497 78.3678 26.7997 77.8344 26.7331C77.2844 26.6664 76.7344 26.6331 76.1678 26.6664C75.6178 26.6997 75.0511 26.7664 74.5011 26.8664C73.9511 26.9664 73.4011 27.0997 72.8678 27.2664C71.7844 27.5831 70.7344 27.9831 69.7178 28.4831C69.2178 28.7331 68.7178 29.0164 68.2344 29.2997L67.8844 29.5331C67.7678 29.6164 67.6511 29.6997 67.5344 29.7664L67.3511 29.8831L67.1844 29.9997C67.0678 30.0831 66.9511 30.1664 66.8511 30.2497C66.4011 30.5831 65.9678 30.9497 65.5511 31.3331C65.2511 31.5997 64.9678 31.8831 64.6844 32.1664C64.4511 32.7164 64.2178 33.3497 63.9678 34.0664C64.1344 33.8997 64.3011 33.7331 64.4844 33.5664C64.9011 33.1664 65.3344 32.7831 65.7844 32.4164C66.2344 32.0497 66.7011 31.6997 67.1678 31.3664C67.6511 31.0331 68.1344 30.7164 68.6511 30.4497C68.9011 30.2997 69.1678 30.1831 69.4178 30.0331C69.5511 29.9664 69.6844 29.9164 69.8178 29.8497C69.9511 29.7831 70.0844 29.7331 70.2178 29.6664L70.6178 29.4997C70.7511 29.4497 70.8844 29.3997 71.0344 29.3497C71.3011 29.2497 71.5844 29.1664 71.8678 29.0831C71.9344 29.0664 72.0011 29.0497 72.0844 29.0164L72.3011 28.9664L72.5178 28.9164L72.6178 28.8831C72.6511 28.8831 72.6844 28.8664 72.7178 28.8664C73.0011 28.8164 73.2844 28.7497 73.5844 28.7164C73.8678 28.6831 74.1678 28.6497 74.4678 28.6331C74.7678 28.6164 75.0511 28.5997 75.3511 28.6164C75.6511 28.6164 75.9344 28.6497 76.2344 28.6831C76.5344 28.7164 76.8178 28.7831 77.1011 28.8497C77.3844 28.9164 77.6678 29.0164 77.9511 29.1164C78.2344 29.2331 78.5011 29.3497 78.7511 29.4997C79.0011 29.6497 79.2511 29.8164 79.4844 30.0164C79.7178 30.1997 79.9178 30.4164 80.1178 30.6497C80.2178 30.7664 80.3011 30.8831 80.3844 31.0164C80.4678 31.1497 80.5344 31.2831 80.6011 31.4164C80.6678 31.5497 80.7178 31.6997 80.7511 31.8331C80.8011 31.9831 80.8178 32.1331 80.8344 32.2831C80.8511 32.4331 80.8511 32.5831 80.8344 32.7331C80.8178 32.8831 80.8011 33.0331 80.7511 33.1831C80.7011 33.3331 80.6344 33.4664 80.5678 33.5997C80.4844 33.7331 80.4011 33.8497 80.2844 33.9497C80.1344 34.0997 79.4344 34.7164 78.2844 34.7497C75.2678 34.8331 76.5678 32.4497 76.8844 32.4831C76.8844 32.4831 76.4678 34.1164 78.2844 33.9997C79.7178 33.9164 79.7511 32.7664 79.4511 32.1331C79.1511 31.4997 78.4344 31.3497 77.7011 31.3831C76.7344 31.4164 75.6344 32.0497 75.4178 33.2997C75.1011 35.1997 77.4011 35.5331 78.2844 35.5831C79.5844 35.6497 82.2844 34.9331 82.4678 32.0331C82.4344 32.0497 82.4178 32.0831 82.4178 32.0997Z" fill="#FB9A00"/>
<path d="M96.451 7.74993C96.451 7.74993 94.1343 2.0166 87.501 2.9666C87.651 2.99993 87.7843 3.03326 87.9343 3.08326C88.2176 3.1666 88.5176 3.24993 88.801 3.34993C89.9343 3.74993 91.0176 4.3166 91.9843 5.04993C92.951 5.78326 93.7676 6.7166 94.401 7.74993C95.0343 8.78327 95.501 9.93327 95.7676 11.1166C96.051 12.2999 96.1676 13.5166 96.151 14.7333C96.151 15.3333 96.101 15.9499 96.0343 16.5499C95.9676 17.1499 95.851 17.7499 95.7176 18.3333C95.5843 18.9166 95.4176 19.4999 95.201 20.0833C95.001 20.6499 94.751 21.2166 94.451 21.7499C94.3676 21.8833 94.301 22.0166 94.2176 22.1499C94.1343 22.2833 94.051 22.4166 93.951 22.5333C93.851 22.6666 93.751 22.7833 93.651 22.8999C93.601 22.9666 93.5343 23.0166 93.4843 23.0666L93.3343 23.2333C92.9176 23.6666 92.4676 24.0833 91.9843 24.4666C91.501 24.8333 90.9676 25.1666 90.3843 25.4166C90.101 25.5333 89.7843 25.6333 89.4676 25.6999C89.151 25.7666 88.8343 25.7999 88.501 25.7833C88.501 25.7833 88.501 25.7833 88.4843 25.7833C90.2843 26.2666 93.1343 26.1833 95.6843 22.4333C100.234 15.7499 96.451 7.74993 96.451 7.74993Z" fill="#FB9A00"/>
<path d="M74.5342 30.7005C80.5009 29.2339 80.4008 33.5005 80.2508 33.6172C80.2508 33.6172 80.2175 33.7172 80.1342 33.8505C80.2175 33.7505 80.3008 33.6339 80.3508 33.5172C80.4175 33.4005 80.4675 33.2672 80.5008 33.1339C80.5342 33.0005 80.5508 32.8672 80.5508 32.7339C80.5508 32.6005 80.5508 32.4672 80.5175 32.3339C80.5008 32.2672 80.4842 32.2005 80.4842 32.1339C80.4675 32.0672 80.4508 32.0005 80.4175 31.9339C80.3675 31.8005 80.3175 31.6839 80.2508 31.5505C80.1842 31.4339 80.1175 31.3172 80.0342 31.2005C79.9508 31.0839 79.8675 30.9839 79.7842 30.8839C79.4175 30.4672 78.9842 30.1339 78.4842 29.8672C78.2342 29.7339 77.9842 29.6172 77.7342 29.5339C77.4675 29.4339 77.2008 29.3672 76.9342 29.3005C76.6675 29.2339 76.3842 29.2005 76.1175 29.1672C75.8342 29.1339 75.5675 29.1172 75.2842 29.1172C74.7342 29.1172 74.1675 29.1505 73.6175 29.2339C73.3342 29.2672 73.0675 29.3339 72.7842 29.3839C72.7508 29.3839 72.7175 29.4005 72.6842 29.4005L72.5842 29.4339L72.3842 29.4839L72.1842 29.5339L72.0842 29.5672C72.0508 29.5839 72.0175 29.5839 71.9842 29.6005C70.9008 29.9172 69.8508 30.3505 68.8675 30.9005C68.3675 31.1672 67.8842 31.4672 67.4008 31.7672C67.1675 31.9339 66.9342 32.0839 66.7008 32.2505C66.4675 32.4172 66.2342 32.5839 66.0175 32.7505C65.2342 33.3505 64.4675 34.0172 63.7508 34.7005C62.0675 39.7838 60.2842 47.4838 60.2842 47.4838H61.4508C61.4508 47.4838 61.5175 45.4505 62.5508 43.4505C63.6008 41.4672 65.8175 40.1338 67.5175 40.8838C69.2175 41.6505 70.7008 44.8838 67.2842 45.8505C66.1008 46.1838 65.2175 44.5338 66.6175 43.4338C66.6175 43.4338 66.0842 45.3505 67.9008 44.9005C69.3842 44.5172 68.8342 42.9005 68.2842 42.5338C67.4342 41.9838 66.5675 42.0338 65.7508 43.0338C65.1175 43.8005 65.1675 45.0505 65.4342 45.6338C65.7508 46.3672 67.1508 46.8338 68.2842 46.3338C69.4675 45.8172 70.6842 44.9338 70.7342 42.6505C70.8008 40.3838 68.7508 39.3838 66.6508 39.6838C64.5508 39.9838 62.9175 41.8338 62.9175 41.8338C62.9175 41.8338 66.2675 32.7339 74.5342 30.7005Z" fill="#FB9A00"/>
<path d="M87.2675 20.9834C87.1008 21.1334 86.9675 21.3334 86.9508 21.5834C86.9342 21.7667 86.9675 22.1001 87.2342 22.3334C87.5508 22.6167 88.1675 22.7001 88.9842 22.5501C89.9675 22.3667 91.0342 21.5501 91.8675 20.3334C92.5675 19.3001 93.4342 17.5167 93.5342 14.8667C93.6175 12.7167 93.0342 10.7001 91.8508 9.06673C90.8008 7.61673 89.3342 6.55007 87.8008 6.15007C85.9342 5.65007 84.1842 5.60006 82.3008 6.00007C81.3342 6.20007 80.3342 6.50007 79.3175 6.9334C77.9508 8.0834 76.7008 9.4334 75.5342 10.9001C75.8508 10.7167 76.1508 10.5334 76.4842 10.3667C77.3008 9.9334 78.1342 9.56673 79.0175 9.2834C79.2342 9.21673 79.4508 9.15007 79.6842 9.0834C79.9008 9.01673 80.1342 8.96673 80.3675 8.9334C80.8175 8.85007 81.2842 8.7834 81.7508 8.75007C82.2175 8.71673 82.6842 8.7334 83.1675 8.7834C83.6342 8.85007 84.1008 8.95007 84.5508 9.1334C85.0008 9.30007 85.4342 9.5334 85.8175 9.8334C86.2008 10.1167 86.5508 10.4667 86.8342 10.8501C87.1342 11.2334 87.3675 11.6501 87.5675 12.0834C87.7675 12.5167 87.9175 12.9667 88.0175 13.4334C88.1175 13.9001 88.1842 14.3667 88.2175 14.8501C88.2342 15.3334 88.2008 15.8001 88.1175 16.2667C88.0675 16.6001 88.0008 16.9167 87.9008 17.2501C87.9842 17.2334 88.0508 17.2334 88.1342 17.2167C88.4508 17.1834 88.7675 17.1834 89.0842 17.2501C89.2342 17.2834 89.4008 17.3334 89.5508 17.3834C89.7008 17.4501 89.8342 17.5334 89.9675 17.6334C90.2175 17.8334 90.4175 18.1001 90.5508 18.4001C90.6175 18.5501 90.6675 18.7001 90.7008 18.8501C90.7342 19.0001 90.7675 19.1667 90.7842 19.3167C90.8008 19.6334 90.7342 19.9501 90.6175 20.2334C90.5008 20.5167 90.3508 20.7834 90.1508 21.0334C89.9842 21.2501 89.4342 21.8167 88.6675 22.0167H88.6508C88.5675 22.0334 88.4842 22.0334 88.4008 22.0334C87.9008 22.0501 87.4675 21.8667 87.3342 21.4334C87.3175 21.3501 87.3008 21.2667 87.2842 21.1834C87.2842 21.1667 87.2675 21.1501 87.2675 21.1167C87.2675 21.1334 87.2842 21.1501 87.2842 21.1667C87.2675 21.0834 87.2675 21.0334 87.2675 20.9834Z" fill="#FB9A00"/>
<path d="M86.6007 18.6169C86.7174 18.4002 86.8174 18.1835 86.9007 17.9502C86.7674 18.0002 86.6507 18.0502 86.5341 18.1169C86.4007 18.1835 86.284 18.2502 86.1674 18.3169C86.1007 18.3502 86.0507 18.3835 86.0007 18.4335C85.9507 18.4669 85.884 18.5169 85.834 18.5502C85.6174 18.7169 85.4174 18.9169 85.2507 19.1335C84.9174 19.5669 84.6674 20.0835 84.6007 20.6169C84.5841 20.7502 84.5674 20.9002 84.5674 21.0335C84.734 20.9169 84.9007 20.7835 85.0507 20.6502C85.684 20.0835 86.2174 19.3835 86.6007 18.6169Z" fill="#FB9A00"/>
<path d="M73.7176 13.7005C74.0842 13.4005 74.4676 13.1172 74.8509 12.8505C75.2342 12.5838 75.6342 12.3338 76.0509 12.0838C76.2509 11.9672 76.4676 11.8505 76.6676 11.7338C76.8842 11.6172 77.0842 11.5172 77.3009 11.4172C77.7342 11.2172 78.1676 11.0338 78.6176 10.8838C79.0676 10.7338 79.5176 10.6005 79.9842 10.5005C80.4509 10.4005 80.9176 10.3172 81.4009 10.2838C81.8842 10.2505 82.3676 10.2505 82.8509 10.3172C83.3342 10.3672 83.8009 10.4838 84.2676 10.6672C84.7176 10.8338 85.1509 11.0838 85.5342 11.3838C85.9176 11.6838 86.2509 12.0338 86.5342 12.4172C86.8175 12.8005 87.0342 13.2338 87.2009 13.6838C87.2842 13.9005 87.3509 14.1338 87.4175 14.3672C87.4509 14.5005 87.4842 14.6338 87.5009 14.7672C87.4842 14.3672 87.4175 13.9672 87.3342 13.5672C87.1509 12.7172 86.8009 11.9172 86.3009 11.2338C86.0509 10.8838 85.7509 10.5838 85.4175 10.3172C85.0842 10.0505 84.7176 9.85051 84.3176 9.68384C83.5342 9.36717 82.6509 9.2505 81.7676 9.26717C80.8842 9.28384 80.0176 9.45051 79.1509 9.70051C78.3009 9.95051 77.4509 10.2672 76.6509 10.6505C76.1342 10.9005 75.6176 11.1672 75.1176 11.4505C74.4676 12.3005 73.8509 13.1838 73.2676 14.0838C73.4009 13.9505 73.5509 13.8338 73.7176 13.7005Z" fill="#FB9A00"/>
<path d="M57.6501 49.9328C57.6501 49.9328 58.5168 49.0662 60.3335 49.0662C62.1501 49.0662 62.9001 49.5828 63.0835 49.9328C63.0835 49.9328 64.6001 48.8328 63.6668 47.6661C62.7335 46.4995 60.0501 46.6161 59.1668 46.8495C58.2835 47.0828 56.7168 47.5495 56.7168 48.7662C56.7168 49.5828 57.6501 49.9328 57.6501 49.9328Z" fill="#324A58"/>
</svg>
