<svg width="75" height="75" viewBox="0 0 75 75" fill="none" xmlns="http://www.w3.org/2000/svg">
<path d="M22.5 43.125H38.75V45.625H22.5V43.125Z" fill="white"/>
<path d="M22.5 36.875H36.25V39.375H22.5V36.875Z" fill="white"/>
<path d="M71.25 9.375H57.5V4.375C57.5 3.68469 56.9403 3.125 56.25 3.125H18.75C18.0597 3.125 17.5 3.68469 17.5 4.375V9.375H3.75C1.67908 9.375 0 11.0541 0 13.125V50.625C0 52.6959 1.67908 54.375 3.75 54.375H31.25V61.875H20C19.3097 61.875 18.75 62.4347 18.75 63.125V69.375H16.25V71.875H58.75V69.375H56.25V63.125C56.25 62.4347 55.6903 61.875 55 61.875H43.75V54.375H71.25C73.3209 54.375 75 52.6959 75 50.625V13.125C75 11.0541 73.3209 9.375 71.25 9.375ZM71.25 11.875C71.9403 11.875 72.5 12.4347 72.5 13.125V44.375H57.5V30.2875L63.5602 23.0664C65.0775 21.2512 65.1147 18.6212 63.6499 16.7633C62.1851 14.906 59.6191 14.3292 57.5 15.3815V11.875H71.25ZM47.9865 37.7362L44.1565 34.5227L55.4065 21.1176L59.2365 24.3311L47.9865 37.7362ZM43.2825 37.0526L45.6464 39.0363L42.8125 40.014L43.2825 37.0526ZM61.6449 21.4587L60.8411 22.4152L57.0111 19.201L57.8149 18.244C58.703 17.1863 60.2802 17.0483 61.3373 17.9364C62.395 18.8239 62.533 20.401 61.6449 21.4587ZM20 5.625H55V17.71L41.4374 33.8751C41.2921 34.0485 41.1957 34.2578 41.1603 34.4812L40.0153 41.6803C39.9469 42.113 40.1111 42.55 40.4474 42.832C40.7837 43.1134 41.2427 43.1982 41.6577 43.0548L48.5474 40.6799C48.7616 40.6073 48.952 40.4779 49.0973 40.3052L55 33.2672V48.125H20V5.625ZM3.75 11.875H17.5V44.375H2.5V13.125C2.5 12.4347 3.05969 11.875 3.75 11.875ZM53.75 69.375H21.25V64.375H53.75V69.375ZM41.25 61.875H33.75V54.375H41.25V61.875ZM71.25 51.875H3.75C3.05969 51.875 2.5 51.3153 2.5 50.625V46.875H17.5V49.375C17.5 50.0653 18.0597 50.625 18.75 50.625H56.25C56.9403 50.625 57.5 50.0653 57.5 49.375V46.875H72.5V50.625C72.5 51.3153 71.9403 51.875 71.25 51.875Z" fill="white"/>
<path d="M67.5 48.125H70V50.625H67.5V48.125Z" fill="white"/>
<path d="M22.5 8.125H27.5V10.625H22.5V8.125Z" fill="white"/>
<path d="M30 8.125H51.25V10.625H30V8.125Z" fill="white"/>
<path d="M22.5 14.375H51.25V16.875H22.5V14.375Z" fill="white"/>
<path d="M22.5 20.625H25V23.125H22.5V20.625Z" fill="white"/>
<path d="M27.5 20.625H30V23.125H27.5V20.625Z" fill="white"/>
<path d="M32.5 20.625H46.25V23.125H32.5V20.625Z" fill="white"/>
<path d="M22.5 26.875H30V29.375H22.5V26.875Z" fill="white"/>
<path d="M32.5 26.875H41.25V29.375H32.5V26.875Z" fill="white"/>
</svg>
